<?xml version="1.0" encoding="utf-8" standalone="no"?>
<!DOCTYPE svg PUBLIC "-//W3C//DTD SVG 1.1//EN"
  "http://www.w3.org/Graphics/SVG/1.1/DTD/svg11.dtd">
<svg xmlns:xlink="http://www.w3.org/1999/xlink" width="460.8pt" height="345.6pt" viewBox="0 0 460.8 345.6" xmlns="http://www.w3.org/2000/svg" version="1.1">
 <metadata>
  <rdf:RDF xmlns:dc="http://purl.org/dc/elements/1.1/" xmlns:cc="http://creativecommons.org/ns#" xmlns:rdf="http://www.w3.org/1999/02/22-rdf-syntax-ns#">
   <cc:Work>
    <dc:type rdf:resource="http://purl.org/dc/dcmitype/StillImage"/>
    <dc:date>2026-02-28T12:26:47.335618</dc:date>
    <dc:format>image/svg+xml</dc:format>
    <dc:creator>
     <cc:Agent>
      <dc:title>Matplotlib v3.10.8, https://matplotlib.org/</dc:title>
     </cc:Agent>
    </dc:creator>
   </cc:Work>
  </rdf:RDF>
 </metadata>
 <defs>
  <style type="text/css">*{stroke-linejoin: round; stroke-linecap: butt}</style>
 </defs>
 <g id="figure_1">
  <g id="patch_1">
   <path d="M 0 345.6 
L 460.8 345.6 
L 460.8 0 
L 0 0 
z
" style="fill: #ffffff"/>
  </g>
  <g id="axes_1">
   <g id="patch_2">
    <path d="M 57.6 307.584 
L 414.72 307.584 
L 414.72 41.472 
L 57.6 41.472 
z
" style="fill: #ffffff"/>
   </g>
   <g id="matplotlib.axis_1">
    <g id="xtick_1">
     <g id="line2d_1">
      <defs>
       <path id="m2d39c2e4e2" d="M 0 0 
L 0 3.5 
" style="stroke: #000000; stroke-width: 0.8"/>
      </defs>
      <g>
       <use xlink:href="#m2d39c2e4e2" x="73.832727" y="307.584" style="stroke: #000000; stroke-width: 0.8"/>
      </g>
     </g>
     <g id="text_1">
      <!-- 1.0 -->
      <g transform="translate(65.881165 322.182437) scale(0.1 -0.1)">
       <defs>
        <path id="DejaVuSans-31" d="M 794 531 
L 1825 531 
L 1825 4091 
L 703 3866 
L 703 4441 
L 1819 4666 
L 2450 4666 
L 2450 531 
L 3481 531 
L 3481 0 
L 794 0 
L 794 531 
z
" transform="scale(0.015625)"/>
        <path id="DejaVuSans-2e" d="M 684 794 
L 1344 794 
L 1344 0 
L 684 0 
L 684 794 
z
" transform="scale(0.015625)"/>
        <path id="DejaVuSans-30" d="M 2034 4250 
Q 1547 4250 1301 3770 
Q 1056 3291 1056 2328 
Q 1056 1369 1301 889 
Q 1547 409 2034 409 
Q 2525 409 2770 889 
Q 3016 1369 3016 2328 
Q 3016 3291 2770 3770 
Q 2525 4250 2034 4250 
z
M 2034 4750 
Q 2819 4750 3233 4129 
Q 3647 3509 3647 2328 
Q 3647 1150 3233 529 
Q 2819 -91 2034 -91 
Q 1250 -91 836 529 
Q 422 1150 422 2328 
Q 422 3509 836 4129 
Q 1250 4750 2034 4750 
z
" transform="scale(0.015625)"/>
       </defs>
       <use xlink:href="#DejaVuSans-31"/>
       <use xlink:href="#DejaVuSans-2e" transform="translate(63.623047 0)"/>
       <use xlink:href="#DejaVuSans-30" transform="translate(95.410156 0)"/>
      </g>
     </g>
    </g>
    <g id="xtick_2">
     <g id="line2d_2">
      <g>
       <use xlink:href="#m2d39c2e4e2" x="138.763636" y="307.584" style="stroke: #000000; stroke-width: 0.8"/>
      </g>
     </g>
     <g id="text_2">
      <!-- 1.2 -->
      <g transform="translate(130.812074 322.182437) scale(0.1 -0.1)">
       <defs>
        <path id="DejaVuSans-32" d="M 1228 531 
L 3431 531 
L 3431 0 
L 469 0 
L 469 531 
Q 828 903 1448 1529 
Q 2069 2156 2228 2338 
Q 2531 2678 2651 2914 
Q 2772 3150 2772 3378 
Q 2772 3750 2511 3984 
Q 2250 4219 1831 4219 
Q 1534 4219 1204 4116 
Q 875 4013 500 3803 
L 500 4441 
Q 881 4594 1212 4672 
Q 1544 4750 1819 4750 
Q 2544 4750 2975 4387 
Q 3406 4025 3406 3419 
Q 3406 3131 3298 2873 
Q 3191 2616 2906 2266 
Q 2828 2175 2409 1742 
Q 1991 1309 1228 531 
z
" transform="scale(0.015625)"/>
       </defs>
       <use xlink:href="#DejaVuSans-31"/>
       <use xlink:href="#DejaVuSans-2e" transform="translate(63.623047 0)"/>
       <use xlink:href="#DejaVuSans-32" transform="translate(95.410156 0)"/>
      </g>
     </g>
    </g>
    <g id="xtick_3">
     <g id="line2d_3">
      <g>
       <use xlink:href="#m2d39c2e4e2" x="203.694545" y="307.584" style="stroke: #000000; stroke-width: 0.8"/>
      </g>
     </g>
     <g id="text_3">
      <!-- 1.4 -->
      <g transform="translate(195.742983 322.182437) scale(0.1 -0.1)">
       <defs>
        <path id="DejaVuSans-34" d="M 2419 4116 
L 825 1625 
L 2419 1625 
L 2419 4116 
z
M 2253 4666 
L 3047 4666 
L 3047 1625 
L 3713 1625 
L 3713 1100 
L 3047 1100 
L 3047 0 
L 2419 0 
L 2419 1100 
L 313 1100 
L 313 1709 
L 2253 4666 
z
" transform="scale(0.015625)"/>
       </defs>
       <use xlink:href="#DejaVuSans-31"/>
       <use xlink:href="#DejaVuSans-2e" transform="translate(63.623047 0)"/>
       <use xlink:href="#DejaVuSans-34" transform="translate(95.410156 0)"/>
      </g>
     </g>
    </g>
    <g id="xtick_4">
     <g id="line2d_4">
      <g>
       <use xlink:href="#m2d39c2e4e2" x="268.625455" y="307.584" style="stroke: #000000; stroke-width: 0.8"/>
      </g>
     </g>
     <g id="text_4">
      <!-- 1.6 -->
      <g transform="translate(260.673892 322.182437) scale(0.1 -0.1)">
       <defs>
        <path id="DejaVuSans-36" d="M 2113 2584 
Q 1688 2584 1439 2293 
Q 1191 2003 1191 1497 
Q 1191 994 1439 701 
Q 1688 409 2113 409 
Q 2538 409 2786 701 
Q 3034 994 3034 1497 
Q 3034 2003 2786 2293 
Q 2538 2584 2113 2584 
z
M 3366 4563 
L 3366 3988 
Q 3128 4100 2886 4159 
Q 2644 4219 2406 4219 
Q 1781 4219 1451 3797 
Q 1122 3375 1075 2522 
Q 1259 2794 1537 2939 
Q 1816 3084 2150 3084 
Q 2853 3084 3261 2657 
Q 3669 2231 3669 1497 
Q 3669 778 3244 343 
Q 2819 -91 2113 -91 
Q 1303 -91 875 529 
Q 447 1150 447 2328 
Q 447 3434 972 4092 
Q 1497 4750 2381 4750 
Q 2619 4750 2861 4703 
Q 3103 4656 3366 4563 
z
" transform="scale(0.015625)"/>
       </defs>
       <use xlink:href="#DejaVuSans-31"/>
       <use xlink:href="#DejaVuSans-2e" transform="translate(63.623047 0)"/>
       <use xlink:href="#DejaVuSans-36" transform="translate(95.410156 0)"/>
      </g>
     </g>
    </g>
    <g id="xtick_5">
     <g id="line2d_5">
      <g>
       <use xlink:href="#m2d39c2e4e2" x="333.556364" y="307.584" style="stroke: #000000; stroke-width: 0.8"/>
      </g>
     </g>
     <g id="text_5">
      <!-- 1.8 -->
      <g transform="translate(325.604801 322.182437) scale(0.1 -0.1)">
       <defs>
        <path id="DejaVuSans-38" d="M 2034 2216 
Q 1584 2216 1326 1975 
Q 1069 1734 1069 1313 
Q 1069 891 1326 650 
Q 1584 409 2034 409 
Q 2484 409 2743 651 
Q 3003 894 3003 1313 
Q 3003 1734 2745 1975 
Q 2488 2216 2034 2216 
z
M 1403 2484 
Q 997 2584 770 2862 
Q 544 3141 544 3541 
Q 544 4100 942 4425 
Q 1341 4750 2034 4750 
Q 2731 4750 3128 4425 
Q 3525 4100 3525 3541 
Q 3525 3141 3298 2862 
Q 3072 2584 2669 2484 
Q 3125 2378 3379 2068 
Q 3634 1759 3634 1313 
Q 3634 634 3220 271 
Q 2806 -91 2034 -91 
Q 1263 -91 848 271 
Q 434 634 434 1313 
Q 434 1759 690 2068 
Q 947 2378 1403 2484 
z
M 1172 3481 
Q 1172 3119 1398 2916 
Q 1625 2713 2034 2713 
Q 2441 2713 2670 2916 
Q 2900 3119 2900 3481 
Q 2900 3844 2670 4047 
Q 2441 4250 2034 4250 
Q 1625 4250 1398 4047 
Q 1172 3844 1172 3481 
z
" transform="scale(0.015625)"/>
       </defs>
       <use xlink:href="#DejaVuSans-31"/>
       <use xlink:href="#DejaVuSans-2e" transform="translate(63.623047 0)"/>
       <use xlink:href="#DejaVuSans-38" transform="translate(95.410156 0)"/>
      </g>
     </g>
    </g>
    <g id="xtick_6">
     <g id="line2d_6">
      <g>
       <use xlink:href="#m2d39c2e4e2" x="398.487273" y="307.584" style="stroke: #000000; stroke-width: 0.8"/>
      </g>
     </g>
     <g id="text_6">
      <!-- 2.0 -->
      <g transform="translate(390.53571 322.182437) scale(0.1 -0.1)">
       <use xlink:href="#DejaVuSans-32"/>
       <use xlink:href="#DejaVuSans-2e" transform="translate(63.623047 0)"/>
       <use xlink:href="#DejaVuSans-30" transform="translate(95.410156 0)"/>
      </g>
     </g>
    </g>
    <g id="text_7">
     <!-- s -->
     <g transform="translate(233.555312 335.860562) scale(0.1 -0.1)">
      <defs>
       <path id="DejaVuSans-73" d="M 2834 3397 
L 2834 2853 
Q 2591 2978 2328 3040 
Q 2066 3103 1784 3103 
Q 1356 3103 1142 2972 
Q 928 2841 928 2578 
Q 928 2378 1081 2264 
Q 1234 2150 1697 2047 
L 1894 2003 
Q 2506 1872 2764 1633 
Q 3022 1394 3022 966 
Q 3022 478 2636 193 
Q 2250 -91 1575 -91 
Q 1294 -91 989 -36 
Q 684 19 347 128 
L 347 722 
Q 666 556 975 473 
Q 1284 391 1588 391 
Q 1994 391 2212 530 
Q 2431 669 2431 922 
Q 2431 1156 2273 1281 
Q 2116 1406 1581 1522 
L 1381 1569 
Q 847 1681 609 1914 
Q 372 2147 372 2553 
Q 372 3047 722 3315 
Q 1072 3584 1716 3584 
Q 2034 3584 2315 3537 
Q 2597 3491 2834 3397 
z
" transform="scale(0.015625)"/>
      </defs>
      <use xlink:href="#DejaVuSans-73"/>
     </g>
    </g>
   </g>
   <g id="matplotlib.axis_2">
    <g id="ytick_1">
     <g id="line2d_7">
      <defs>
       <path id="m4cf48498e0" d="M 0 0 
L -3.5 0 
" style="stroke: #000000; stroke-width: 0.8"/>
      </defs>
      <g>
       <use xlink:href="#m4cf48498e0" x="57.6" y="295.488" style="stroke: #000000; stroke-width: 0.8"/>
      </g>
     </g>
     <g id="text_8">
      <!-- 0.0 -->
      <g transform="translate(34.696875 299.287219) scale(0.1 -0.1)">
       <use xlink:href="#DejaVuSans-30"/>
       <use xlink:href="#DejaVuSans-2e" transform="translate(63.623047 0)"/>
       <use xlink:href="#DejaVuSans-30" transform="translate(95.410156 0)"/>
      </g>
     </g>
    </g>
    <g id="ytick_2">
     <g id="line2d_8">
      <g>
       <use xlink:href="#m4cf48498e0" x="57.6" y="261.275345" style="stroke: #000000; stroke-width: 0.8"/>
      </g>
     </g>
     <g id="text_9">
      <!-- 0.2 -->
      <g transform="translate(34.696875 265.074564) scale(0.1 -0.1)">
       <use xlink:href="#DejaVuSans-30"/>
       <use xlink:href="#DejaVuSans-2e" transform="translate(63.623047 0)"/>
       <use xlink:href="#DejaVuSans-32" transform="translate(95.410156 0)"/>
      </g>
     </g>
    </g>
    <g id="ytick_3">
     <g id="line2d_9">
      <g>
       <use xlink:href="#m4cf48498e0" x="57.6" y="227.062691" style="stroke: #000000; stroke-width: 0.8"/>
      </g>
     </g>
     <g id="text_10">
      <!-- 0.4 -->
      <g transform="translate(34.696875 230.86191) scale(0.1 -0.1)">
       <use xlink:href="#DejaVuSans-30"/>
       <use xlink:href="#DejaVuSans-2e" transform="translate(63.623047 0)"/>
       <use xlink:href="#DejaVuSans-34" transform="translate(95.410156 0)"/>
      </g>
     </g>
    </g>
    <g id="ytick_4">
     <g id="line2d_10">
      <g>
       <use xlink:href="#m4cf48498e0" x="57.6" y="192.850036" style="stroke: #000000; stroke-width: 0.8"/>
      </g>
     </g>
     <g id="text_11">
      <!-- 0.6 -->
      <g transform="translate(34.696875 196.649255) scale(0.1 -0.1)">
       <use xlink:href="#DejaVuSans-30"/>
       <use xlink:href="#DejaVuSans-2e" transform="translate(63.623047 0)"/>
       <use xlink:href="#DejaVuSans-36" transform="translate(95.410156 0)"/>
      </g>
     </g>
    </g>
    <g id="ytick_5">
     <g id="line2d_11">
      <g>
       <use xlink:href="#m4cf48498e0" x="57.6" y="158.637382" style="stroke: #000000; stroke-width: 0.8"/>
      </g>
     </g>
     <g id="text_12">
      <!-- 0.8 -->
      <g transform="translate(34.696875 162.436601) scale(0.1 -0.1)">
       <use xlink:href="#DejaVuSans-30"/>
       <use xlink:href="#DejaVuSans-2e" transform="translate(63.623047 0)"/>
       <use xlink:href="#DejaVuSans-38" transform="translate(95.410156 0)"/>
      </g>
     </g>
    </g>
    <g id="ytick_6">
     <g id="line2d_12">
      <g>
       <use xlink:href="#m4cf48498e0" x="57.6" y="124.424727" style="stroke: #000000; stroke-width: 0.8"/>
      </g>
     </g>
     <g id="text_13">
      <!-- 1.0 -->
      <g transform="translate(34.696875 128.223946) scale(0.1 -0.1)">
       <use xlink:href="#DejaVuSans-31"/>
       <use xlink:href="#DejaVuSans-2e" transform="translate(63.623047 0)"/>
       <use xlink:href="#DejaVuSans-30" transform="translate(95.410156 0)"/>
      </g>
     </g>
    </g>
    <g id="ytick_7">
     <g id="line2d_13">
      <g>
       <use xlink:href="#m4cf48498e0" x="57.6" y="90.212073" style="stroke: #000000; stroke-width: 0.8"/>
      </g>
     </g>
     <g id="text_14">
      <!-- 1.2 -->
      <g transform="translate(34.696875 94.011292) scale(0.1 -0.1)">
       <use xlink:href="#DejaVuSans-31"/>
       <use xlink:href="#DejaVuSans-2e" transform="translate(63.623047 0)"/>
       <use xlink:href="#DejaVuSans-32" transform="translate(95.410156 0)"/>
      </g>
     </g>
    </g>
    <g id="ytick_8">
     <g id="line2d_14">
      <g>
       <use xlink:href="#m4cf48498e0" x="57.6" y="55.999418" style="stroke: #000000; stroke-width: 0.8"/>
      </g>
     </g>
     <g id="text_15">
      <!-- 1.4 -->
      <g transform="translate(34.696875 59.798637) scale(0.1 -0.1)">
       <use xlink:href="#DejaVuSans-31"/>
       <use xlink:href="#DejaVuSans-2e" transform="translate(63.623047 0)"/>
       <use xlink:href="#DejaVuSans-34" transform="translate(95.410156 0)"/>
      </g>
     </g>
    </g>
    <g id="text_16">
     <!-- $||e - \tilde e||$ -->
     <g transform="translate(28.296875 193.578) rotate(-90) scale(0.1 -0.1)">
      <defs>
       <path id="DejaVuSans-7c" d="M 1344 4891 
L 1344 -1509 
L 813 -1509 
L 813 4891 
L 1344 4891 
z
" transform="scale(0.015625)"/>
       <path id="DejaVuSans-Oblique-65" d="M 3078 2063 
Q 3088 2113 3092 2166 
Q 3097 2219 3097 2272 
Q 3097 2653 2873 2875 
Q 2650 3097 2266 3097 
Q 1838 3097 1509 2826 
Q 1181 2556 1013 2059 
L 3078 2063 
z
M 3578 1613 
L 903 1613 
Q 884 1494 878 1425 
Q 872 1356 872 1306 
Q 872 872 1139 634 
Q 1406 397 1894 397 
Q 2269 397 2603 481 
Q 2938 566 3225 728 
L 3116 159 
Q 2806 34 2476 -28 
Q 2147 -91 1806 -91 
Q 1078 -91 686 257 
Q 294 606 294 1247 
Q 294 1794 489 2264 
Q 684 2734 1063 3103 
Q 1306 3334 1642 3459 
Q 1978 3584 2356 3584 
Q 2950 3584 3301 3228 
Q 3653 2872 3653 2272 
Q 3653 2128 3634 1964 
Q 3616 1800 3578 1613 
z
" transform="scale(0.015625)"/>
       <path id="DejaVuSans-2212" d="M 678 2272 
L 4684 2272 
L 4684 1741 
L 678 1741 
L 678 2272 
z
" transform="scale(0.015625)"/>
       <path id="DejaVuSans-303" d="M -1621 4281 
L -1799 4453 
Q -1867 4516 -1919 4545 
Q -1971 4575 -2011 4575 
Q -2130 4575 -2186 4461 
Q -2242 4347 -2249 4091 
L -2639 4091 
Q -2633 4513 -2473 4742 
Q -2314 4972 -2030 4972 
Q -1911 4972 -1811 4928 
Q -1711 4884 -1596 4781 
L -1417 4609 
Q -1349 4547 -1297 4517 
Q -1246 4488 -1205 4488 
Q -1086 4488 -1030 4602 
Q -974 4716 -967 4972 
L -577 4972 
Q -583 4550 -742 4320 
Q -902 4091 -1186 4091 
Q -1305 4091 -1405 4134 
Q -1505 4178 -1621 4281 
z
" transform="scale(0.015625)"/>
      </defs>
      <use xlink:href="#DejaVuSans-7c" transform="translate(0 0.734375)"/>
      <use xlink:href="#DejaVuSans-7c" transform="translate(33.691406 0.734375)"/>
      <use xlink:href="#DejaVuSans-Oblique-65" transform="translate(67.382812 0.734375)"/>
      <use xlink:href="#DejaVuSans-2212" transform="translate(148.388672 0.734375)"/>
      <use xlink:href="#DejaVuSans-303" transform="translate(310.015625 5.3125)"/>
      <use xlink:href="#DejaVuSans-Oblique-65" transform="translate(251.660156 0.734375)"/>
      <use xlink:href="#DejaVuSans-7c" transform="translate(313.183594 0.734375)"/>
      <use xlink:href="#DejaVuSans-7c" transform="translate(346.875 0.734375)"/>
     </g>
    </g>
   </g>
   <g id="line2d_15">
    <path d="M 73.832727 295.488 
L 80.45833 247.104 
L 87.083933 291.974124 
L 93.709536 247.471013 
L 100.335139 247.103989 
L 106.960742 224.729442 
L 113.586345 282.640398 
L 120.211948 272.344776 
L 126.837551 229.011964 
L 133.463154 129.955232 
L 140.088757 271.991335 
L 146.71436 198.719985 
L 153.339963 135.750658 
L 159.965566 198.719984 
L 166.591169 195.198927 
L 173.216772 189.39631 
L 179.842375 166.049823 
L 186.467978 262.810627 
L 193.093581 132.243974 
L 199.719184 235.02505 
L 206.344787 239.575081 
L 212.97039 247.575722 
L 219.595993 233.116654 
L 226.221596 142.193337 
L 232.847199 155.209345 
L 239.472801 101.951989 
L 246.098404 202.513279 
L 252.724007 129.119706 
L 259.34961 163.872984 
L 265.975213 161.261337 
L 272.600816 199.796719 
L 279.226419 84.249582 
L 285.852022 121.291595 
L 292.477625 164.059987 
L 299.103228 166.544133 
L 305.728831 155.209345 
L 312.354434 115.035402 
L 318.980037 87.672752 
L 325.60564 133.998322 
L 332.231243 156.024148 
L 338.856846 132.355868 
L 345.482449 161.128367 
L 352.108052 199.310807 
L 358.733655 168.296626 
L 365.359258 126.686701 
L 371.984861 173.70256 
L 378.610464 208.743099 
L 385.236067 165.516656 
L 391.86167 126.099677 
L 398.487273 183.422429 
" clip-path="url(#pe5a8c63530)" style="fill: none; stroke: #1f77b4; stroke-width: 1.5; stroke-linecap: square"/>
   </g>
   <g id="line2d_16">
    <path d="M 73.832727 295.488 
L 80.45833 295.488 
L 87.083933 295.487978 
L 93.709536 269.396492 
L 100.335139 287.585777 
L 106.960742 247.101744 
L 113.586345 220.763877 
L 120.211948 269.395323 
L 126.837551 295.287109 
L 133.463154 190.819954 
L 140.088757 220.883323 
L 146.71436 231.014283 
L 153.339963 219.590567 
L 159.965566 269.39473 
L 166.591169 220.887954 
L 173.216772 191.128645 
L 179.842375 261.472765 
L 186.467978 279.686859 
L 193.093581 242.993849 
L 199.719184 243.115229 
L 206.344787 253.368347 
L 212.97039 172.772864 
L 219.595993 168.748981 
L 226.221596 220.900522 
L 232.847199 242.991539 
L 239.472801 186.778995 
L 246.098404 187.086343 
L 252.724007 116.410744 
L 259.34961 138.577185 
L 265.975213 160.757556 
L 272.600816 172.596284 
L 279.226419 287.30527 
L 285.852022 164.697597 
L 292.477625 230.918361 
L 299.103228 164.752277 
L 305.728831 179.105254 
L 312.354434 220.510867 
L 318.980037 216.632016 
L 325.60564 98.351504 
L 332.231243 116.232312 
L 338.856846 98.093257 
L 345.482449 219.297901 
L 352.108052 138.493376 
L 358.733655 168.618533 
L 365.359258 160.756011 
L 371.984861 116.281614 
L 378.610464 190.493279 
L 385.236067 146.298996 
L 391.86167 142.483319 
L 398.487273 172.376698 
" clip-path="url(#pe5a8c63530)" style="fill: none; stroke: #ff7f0e; stroke-width: 1.5; stroke-linecap: square"/>
   </g>
   <g id="line2d_17">
    <path d="M 73.832727 295.488 
L 80.45833 295.487991 
L 87.083933 295.262708 
L 93.709536 295.282329 
L 100.335139 294.991847 
L 106.960742 295.312579 
L 113.586345 198.654605 
L 120.211948 295.123331 
L 126.837551 295.486273 
L 133.463154 247.100901 
L 140.088757 247.09967 
L 146.71436 246.876767 
L 153.339963 246.661249 
L 159.965566 246.76011 
L 166.591169 198.261247 
L 173.216772 246.859207 
L 179.842375 246.805656 
L 186.467978 246.858301 
L 193.093581 294.876831 
L 199.719184 150.33407 
L 206.344787 198.372773 
L 212.97039 295.019424 
L 219.595993 294.603951 
L 226.221596 198.480318 
L 232.847199 198.357138 
L 239.472801 101.887217 
L 246.098404 198.287807 
L 252.724007 150.206483 
L 259.34961 198.443716 
L 265.975213 150.267988 
L 272.600816 198.293392 
L 279.226419 295.057204 
L 285.852022 294.825961 
L 292.477625 198.386265 
L 299.103228 150.041426 
L 305.728831 150.110632 
L 312.354434 246.612923 
L 318.980037 294.871847 
L 325.60564 198.335234 
L 332.231243 198.435767 
L 338.856846 101.83054 
L 345.482449 150.121251 
L 352.108052 198.37785 
L 358.733655 150.037811 
L 365.359258 150.269019 
L 371.984861 198.43424 
L 378.610464 198.293292 
L 385.236067 150.172195 
L 391.86167 101.750687 
L 398.487273 198.405424 
" clip-path="url(#pe5a8c63530)" style="fill: none; stroke: #2ca02c; stroke-width: 1.5; stroke-linecap: square"/>
   </g>
   <g id="line2d_18">
    <path d="M 73.832727 295.488 
L 80.45833 247.103803 
L 87.083933 295.403568 
L 93.709536 198.719111 
L 100.335139 150.332319 
L 106.960742 195.201181 
L 113.586345 198.616476 
L 120.211948 198.640618 
L 126.837551 239.386995 
L 133.463154 194.292907 
L 140.088757 246.846997 
L 146.71436 251.837116 
L 153.339963 146.723004 
L 159.965566 146.81695 
L 166.591169 169.42489 
L 173.216772 101.854099 
L 179.842375 97.616555 
L 186.467978 131.514328 
L 193.093581 135.737253 
L 199.719184 97.615832 
L 206.344787 98.481349 
L 212.97039 234.048965 
L 219.595993 53.568 
L 226.221596 98.480018 
L 232.847199 97.357056 
L 239.472801 98.435478 
L 246.098404 176.474548 
L 252.724007 129.959743 
L 259.34961 87.466651 
L 265.975213 87.561756 
L 272.600816 87.353282 
L 279.226419 166.553427 
L 285.852022 53.568 
L 292.477625 53.568 
L 299.103228 53.568 
L 305.728831 179.401466 
L 312.354434 131.120464 
L 318.980037 169.802323 
L 325.60564 115.064525 
L 332.231243 53.568 
L 338.856846 98.983915 
L 345.482449 53.568 
L 352.108052 186.317233 
L 358.733655 87.35328 
L 365.359258 178.168141 
L 371.984861 84.340591 
L 378.610464 87.464087 
L 385.236067 165.704926 
L 391.86167 118.238324 
L 398.487273 53.568 
" clip-path="url(#pe5a8c63530)" style="fill: none; stroke: #d62728; stroke-width: 1.5; stroke-linecap: square"/>
   </g>
   <g id="line2d_19">
    <path d="M 73.832727 295.488 
L 80.45833 295.487993 
L 87.083933 295.486421 
L 93.709536 295.486316 
L 100.335139 247.102143 
L 106.960742 247.101597 
L 113.586345 295.485325 
L 120.211948 198.720172 
L 126.837551 247.10295 
L 133.463154 295.487504 
L 140.088757 247.101572 
L 146.71436 247.101751 
L 153.339963 295.483939 
L 159.965566 295.481463 
L 166.591169 198.718663 
L 173.216772 295.483293 
L 179.842375 247.101608 
L 186.467978 198.717869 
L 193.093581 198.720087 
L 199.719184 295.481679 
L 206.344787 295.482364 
L 212.97039 198.719193 
L 219.595993 150.336485 
L 226.221596 198.71899 
L 232.847199 198.718521 
L 239.472801 150.335825 
L 246.098404 295.480428 
L 252.724007 101.954418 
L 259.34961 53.571587 
L 265.975213 198.716779 
L 272.600816 295.482802 
L 279.226419 247.099949 
L 285.852022 198.71749 
L 292.477625 150.335892 
L 299.103228 295.48019 
L 305.728831 247.100131 
L 312.354434 150.334993 
L 318.980037 150.335496 
L 325.60564 247.100573 
L 332.231243 247.097668 
L 338.856846 150.335034 
L 345.482449 295.481125 
L 352.108052 150.334994 
L 358.733655 247.099581 
L 365.359258 198.717306 
L 371.984861 247.097234 
L 378.610464 295.478696 
L 385.236067 198.715621 
L 391.86167 150.335511 
L 398.487273 247.098374 
" clip-path="url(#pe5a8c63530)" style="fill: none; stroke: #9467bd; stroke-width: 1.5; stroke-linecap: square"/>
   </g>
   <g id="line2d_20">
    <path d="M 73.832727 295.488 
L 80.45833 257.535041 
L 87.083933 255.25317 
L 93.709536 257.707821 
L 100.335139 216.0593 
L 106.960742 227.732959 
L 113.586345 238.086801 
L 120.211948 223.762262 
L 126.837551 222.160682 
L 133.463154 227.773164 
L 140.088757 229.622755 
L 146.71436 219.64453 
L 153.339963 215.585286 
L 159.965566 201.341172 
L 166.591169 198.557956 
L 173.216772 195.656719 
L 179.842375 204.505068 
L 186.467978 191.66742 
L 193.093581 167.228953 
L 199.719184 198.150889 
L 206.344787 187.356223 
L 212.97039 203.364471 
L 219.595993 180.737068 
L 226.221596 189.163699 
L 232.847199 197.745805 
L 239.472801 190.341528 
L 246.098404 157.620955 
L 252.724007 173.86707 
L 259.34961 173.387853 
L 265.975213 167.150685 
L 272.600816 168.800902 
L 279.226419 171.839659 
L 285.852022 165.031838 
L 292.477625 169.531688 
L 299.103228 160.838742 
L 305.728831 186.596034 
L 312.354434 163.207418 
L 318.980037 148.790334 
L 325.60564 164.430694 
L 332.231243 140.975837 
L 338.856846 141.416431 
L 345.482449 134.770488 
L 352.108052 169.051448 
L 358.733655 131.203644 
L 365.359258 157.494763 
L 371.984861 157.210226 
L 378.610464 125.57792 
L 385.236067 154.585837 
L 391.86167 149.343361 
L 398.487273 133.269083 
" clip-path="url(#pe5a8c63530)" style="fill: none; stroke: #8c564b; stroke-width: 1.5; stroke-linecap: square"/>
   </g>
   <g id="line2d_21">
    <path d="M 73.832727 295.488 
L 80.45833 277.471015 
L 87.083933 274.477011 
L 93.709536 266.025788 
L 100.335139 264.714034 
L 106.960742 266.078199 
L 113.586345 240.14093 
L 120.211948 265.42051 
L 126.837551 259.450165 
L 133.463154 246.780323 
L 140.088757 248.765452 
L 146.71436 253.906992 
L 153.339963 253.580378 
L 159.965566 222.359784 
L 166.591169 247.506036 
L 173.216772 240.016608 
L 179.842375 241.821001 
L 186.467978 203.393907 
L 193.093581 237.978176 
L 199.719184 241.179615 
L 206.344787 223.638173 
L 212.97039 220.275517 
L 219.595993 222.334932 
L 226.221596 227.005833 
L 232.847199 212.7785 
L 239.472801 207.158249 
L 246.098404 235.177553 
L 252.724007 135.048123 
L 259.34961 173.798726 
L 265.975213 188.46042 
L 272.600816 178.770114 
L 279.226419 223.65277 
L 285.852022 195.646283 
L 292.477625 204.060978 
L 299.103228 152.199057 
L 305.728831 214.267241 
L 312.354434 166.699833 
L 318.980037 195.001568 
L 325.60564 177.586491 
L 332.231243 201.480437 
L 338.856846 210.732403 
L 345.482449 192.441976 
L 352.108052 139.883276 
L 358.733655 165.405958 
L 365.359258 132.517673 
L 371.984861 195.872664 
L 378.610464 172.370078 
L 385.236067 197.094826 
L 391.86167 178.839263 
L 398.487273 148.67035 
" clip-path="url(#pe5a8c63530)" style="fill: none; stroke: #e377c2; stroke-width: 1.5; stroke-linecap: square"/>
   </g>
   <g id="patch_3">
    <path d="M 57.6 307.584 
L 57.6 41.472 
" style="fill: none; stroke: #000000; stroke-width: 0.8; stroke-linejoin: miter; stroke-linecap: square"/>
   </g>
   <g id="patch_4">
    <path d="M 414.72 307.584 
L 414.72 41.472 
" style="fill: none; stroke: #000000; stroke-width: 0.8; stroke-linejoin: miter; stroke-linecap: square"/>
   </g>
   <g id="patch_5">
    <path d="M 57.6 307.584 
L 414.72 307.584 
" style="fill: none; stroke: #000000; stroke-width: 0.8; stroke-linejoin: miter; stroke-linecap: square"/>
   </g>
   <g id="patch_6">
    <path d="M 57.6 41.472 
L 414.72 41.472 
" style="fill: none; stroke: #000000; stroke-width: 0.8; stroke-linejoin: miter; stroke-linecap: square"/>
   </g>
   <g id="text_17">
    <!-- Sparsification Behavior -->
    <g transform="translate(166.8075 35.472) scale(0.12 -0.12)">
     <defs>
      <path id="DejaVuSans-53" d="M 3425 4513 
L 3425 3897 
Q 3066 4069 2747 4153 
Q 2428 4238 2131 4238 
Q 1616 4238 1336 4038 
Q 1056 3838 1056 3469 
Q 1056 3159 1242 3001 
Q 1428 2844 1947 2747 
L 2328 2669 
Q 3034 2534 3370 2195 
Q 3706 1856 3706 1288 
Q 3706 609 3251 259 
Q 2797 -91 1919 -91 
Q 1588 -91 1214 -16 
Q 841 59 441 206 
L 441 856 
Q 825 641 1194 531 
Q 1563 422 1919 422 
Q 2459 422 2753 634 
Q 3047 847 3047 1241 
Q 3047 1584 2836 1778 
Q 2625 1972 2144 2069 
L 1759 2144 
Q 1053 2284 737 2584 
Q 422 2884 422 3419 
Q 422 4038 858 4394 
Q 1294 4750 2059 4750 
Q 2388 4750 2728 4690 
Q 3069 4631 3425 4513 
z
" transform="scale(0.015625)"/>
      <path id="DejaVuSans-70" d="M 1159 525 
L 1159 -1331 
L 581 -1331 
L 581 3500 
L 1159 3500 
L 1159 2969 
Q 1341 3281 1617 3432 
Q 1894 3584 2278 3584 
Q 2916 3584 3314 3078 
Q 3713 2572 3713 1747 
Q 3713 922 3314 415 
Q 2916 -91 2278 -91 
Q 1894 -91 1617 61 
Q 1341 213 1159 525 
z
M 3116 1747 
Q 3116 2381 2855 2742 
Q 2594 3103 2138 3103 
Q 1681 3103 1420 2742 
Q 1159 2381 1159 1747 
Q 1159 1113 1420 752 
Q 1681 391 2138 391 
Q 2594 391 2855 752 
Q 3116 1113 3116 1747 
z
" transform="scale(0.015625)"/>
      <path id="DejaVuSans-61" d="M 2194 1759 
Q 1497 1759 1228 1600 
Q 959 1441 959 1056 
Q 959 750 1161 570 
Q 1363 391 1709 391 
Q 2188 391 2477 730 
Q 2766 1069 2766 1631 
L 2766 1759 
L 2194 1759 
z
M 3341 1997 
L 3341 0 
L 2766 0 
L 2766 531 
Q 2569 213 2275 61 
Q 1981 -91 1556 -91 
Q 1019 -91 701 211 
Q 384 513 384 1019 
Q 384 1609 779 1909 
Q 1175 2209 1959 2209 
L 2766 2209 
L 2766 2266 
Q 2766 2663 2505 2880 
Q 2244 3097 1772 3097 
Q 1472 3097 1187 3025 
Q 903 2953 641 2809 
L 641 3341 
Q 956 3463 1253 3523 
Q 1550 3584 1831 3584 
Q 2591 3584 2966 3190 
Q 3341 2797 3341 1997 
z
" transform="scale(0.015625)"/>
      <path id="DejaVuSans-72" d="M 2631 2963 
Q 2534 3019 2420 3045 
Q 2306 3072 2169 3072 
Q 1681 3072 1420 2755 
Q 1159 2438 1159 1844 
L 1159 0 
L 581 0 
L 581 3500 
L 1159 3500 
L 1159 2956 
Q 1341 3275 1631 3429 
Q 1922 3584 2338 3584 
Q 2397 3584 2469 3576 
Q 2541 3569 2628 3553 
L 2631 2963 
z
" transform="scale(0.015625)"/>
      <path id="DejaVuSans-69" d="M 603 3500 
L 1178 3500 
L 1178 0 
L 603 0 
L 603 3500 
z
M 603 4863 
L 1178 4863 
L 1178 4134 
L 603 4134 
L 603 4863 
z
" transform="scale(0.015625)"/>
      <path id="DejaVuSans-66" d="M 2375 4863 
L 2375 4384 
L 1825 4384 
Q 1516 4384 1395 4259 
Q 1275 4134 1275 3809 
L 1275 3500 
L 2222 3500 
L 2222 3053 
L 1275 3053 
L 1275 0 
L 697 0 
L 697 3053 
L 147 3053 
L 147 3500 
L 697 3500 
L 697 3744 
Q 697 4328 969 4595 
Q 1241 4863 1831 4863 
L 2375 4863 
z
" transform="scale(0.015625)"/>
      <path id="DejaVuSans-63" d="M 3122 3366 
L 3122 2828 
Q 2878 2963 2633 3030 
Q 2388 3097 2138 3097 
Q 1578 3097 1268 2742 
Q 959 2388 959 1747 
Q 959 1106 1268 751 
Q 1578 397 2138 397 
Q 2388 397 2633 464 
Q 2878 531 3122 666 
L 3122 134 
Q 2881 22 2623 -34 
Q 2366 -91 2075 -91 
Q 1284 -91 818 406 
Q 353 903 353 1747 
Q 353 2603 823 3093 
Q 1294 3584 2113 3584 
Q 2378 3584 2631 3529 
Q 2884 3475 3122 3366 
z
" transform="scale(0.015625)"/>
      <path id="DejaVuSans-74" d="M 1172 4494 
L 1172 3500 
L 2356 3500 
L 2356 3053 
L 1172 3053 
L 1172 1153 
Q 1172 725 1289 603 
Q 1406 481 1766 481 
L 2356 481 
L 2356 0 
L 1766 0 
Q 1100 0 847 248 
Q 594 497 594 1153 
L 594 3053 
L 172 3053 
L 172 3500 
L 594 3500 
L 594 4494 
L 1172 4494 
z
" transform="scale(0.015625)"/>
      <path id="DejaVuSans-6f" d="M 1959 3097 
Q 1497 3097 1228 2736 
Q 959 2375 959 1747 
Q 959 1119 1226 758 
Q 1494 397 1959 397 
Q 2419 397 2687 759 
Q 2956 1122 2956 1747 
Q 2956 2369 2687 2733 
Q 2419 3097 1959 3097 
z
M 1959 3584 
Q 2709 3584 3137 3096 
Q 3566 2609 3566 1747 
Q 3566 888 3137 398 
Q 2709 -91 1959 -91 
Q 1206 -91 779 398 
Q 353 888 353 1747 
Q 353 2609 779 3096 
Q 1206 3584 1959 3584 
z
" transform="scale(0.015625)"/>
      <path id="DejaVuSans-6e" d="M 3513 2113 
L 3513 0 
L 2938 0 
L 2938 2094 
Q 2938 2591 2744 2837 
Q 2550 3084 2163 3084 
Q 1697 3084 1428 2787 
Q 1159 2491 1159 1978 
L 1159 0 
L 581 0 
L 581 3500 
L 1159 3500 
L 1159 2956 
Q 1366 3272 1645 3428 
Q 1925 3584 2291 3584 
Q 2894 3584 3203 3211 
Q 3513 2838 3513 2113 
z
" transform="scale(0.015625)"/>
      <path id="DejaVuSans-20" transform="scale(0.015625)"/>
      <path id="DejaVuSans-42" d="M 1259 2228 
L 1259 519 
L 2272 519 
Q 2781 519 3026 730 
Q 3272 941 3272 1375 
Q 3272 1813 3026 2020 
Q 2781 2228 2272 2228 
L 1259 2228 
z
M 1259 4147 
L 1259 2741 
L 2194 2741 
Q 2656 2741 2882 2914 
Q 3109 3088 3109 3444 
Q 3109 3797 2882 3972 
Q 2656 4147 2194 4147 
L 1259 4147 
z
M 628 4666 
L 2241 4666 
Q 2963 4666 3353 4366 
Q 3744 4066 3744 3513 
Q 3744 3084 3544 2831 
Q 3344 2578 2956 2516 
Q 3422 2416 3680 2098 
Q 3938 1781 3938 1306 
Q 3938 681 3513 340 
Q 3088 0 2303 0 
L 628 0 
L 628 4666 
z
" transform="scale(0.015625)"/>
      <path id="DejaVuSans-65" d="M 3597 1894 
L 3597 1613 
L 953 1613 
Q 991 1019 1311 708 
Q 1631 397 2203 397 
Q 2534 397 2845 478 
Q 3156 559 3463 722 
L 3463 178 
Q 3153 47 2828 -22 
Q 2503 -91 2169 -91 
Q 1331 -91 842 396 
Q 353 884 353 1716 
Q 353 2575 817 3079 
Q 1281 3584 2069 3584 
Q 2775 3584 3186 3129 
Q 3597 2675 3597 1894 
z
M 3022 2063 
Q 3016 2534 2758 2815 
Q 2500 3097 2075 3097 
Q 1594 3097 1305 2825 
Q 1016 2553 972 2059 
L 3022 2063 
z
" transform="scale(0.015625)"/>
      <path id="DejaVuSans-68" d="M 3513 2113 
L 3513 0 
L 2938 0 
L 2938 2094 
Q 2938 2591 2744 2837 
Q 2550 3084 2163 3084 
Q 1697 3084 1428 2787 
Q 1159 2491 1159 1978 
L 1159 0 
L 581 0 
L 581 4863 
L 1159 4863 
L 1159 2956 
Q 1366 3272 1645 3428 
Q 1925 3584 2291 3584 
Q 2894 3584 3203 3211 
Q 3513 2838 3513 2113 
z
" transform="scale(0.015625)"/>
      <path id="DejaVuSans-76" d="M 191 3500 
L 800 3500 
L 1894 563 
L 2988 3500 
L 3597 3500 
L 2284 0 
L 1503 0 
L 191 3500 
z
" transform="scale(0.015625)"/>
     </defs>
     <use xlink:href="#DejaVuSans-53"/>
     <use xlink:href="#DejaVuSans-70" transform="translate(63.476562 0)"/>
     <use xlink:href="#DejaVuSans-61" transform="translate(126.953125 0)"/>
     <use xlink:href="#DejaVuSans-72" transform="translate(188.232422 0)"/>
     <use xlink:href="#DejaVuSans-73" transform="translate(229.345703 0)"/>
     <use xlink:href="#DejaVuSans-69" transform="translate(281.445312 0)"/>
     <use xlink:href="#DejaVuSans-66" transform="translate(309.228516 0)"/>
     <use xlink:href="#DejaVuSans-69" transform="translate(344.433594 0)"/>
     <use xlink:href="#DejaVuSans-63" transform="translate(372.216797 0)"/>
     <use xlink:href="#DejaVuSans-61" transform="translate(427.197266 0)"/>
     <use xlink:href="#DejaVuSans-74" transform="translate(488.476562 0)"/>
     <use xlink:href="#DejaVuSans-69" transform="translate(527.685547 0)"/>
     <use xlink:href="#DejaVuSans-6f" transform="translate(555.46875 0)"/>
     <use xlink:href="#DejaVuSans-6e" transform="translate(616.650391 0)"/>
     <use xlink:href="#DejaVuSans-20" transform="translate(680.029297 0)"/>
     <use xlink:href="#DejaVuSans-42" transform="translate(711.816406 0)"/>
     <use xlink:href="#DejaVuSans-65" transform="translate(780.419922 0)"/>
     <use xlink:href="#DejaVuSans-68" transform="translate(841.943359 0)"/>
     <use xlink:href="#DejaVuSans-61" transform="translate(905.322266 0)"/>
     <use xlink:href="#DejaVuSans-76" transform="translate(966.601562 0)"/>
     <use xlink:href="#DejaVuSans-69" transform="translate(1025.78125 0)"/>
     <use xlink:href="#DejaVuSans-6f" transform="translate(1053.564453 0)"/>
     <use xlink:href="#DejaVuSans-72" transform="translate(1114.746094 0)"/>
    </g>
   </g>
   <g id="legend_1">
    <g id="patch_7">
     <path d="M 64.6 153.331375 
L 167.703125 153.331375 
Q 169.703125 153.331375 169.703125 151.331375 
L 169.703125 48.472 
Q 169.703125 46.472 167.703125 46.472 
L 64.6 46.472 
Q 62.6 46.472 62.6 48.472 
L 62.6 151.331375 
Q 62.6 153.331375 64.6 153.331375 
z
" style="fill: #ffffff; opacity: 0.8; stroke: #cccccc; stroke-linejoin: miter"/>
    </g>
    <g id="line2d_22">
     <path d="M 66.6 54.570438 
L 76.6 54.570438 
L 86.6 54.570438 
" style="fill: none; stroke: #1f77b4; stroke-width: 1.5; stroke-linecap: square"/>
    </g>
    <g id="text_18">
     <!-- 494_bus.mtx -->
     <g transform="translate(94.6 58.070438) scale(0.1 -0.1)">
      <defs>
       <path id="DejaVuSans-39" d="M 703 97 
L 703 672 
Q 941 559 1184 500 
Q 1428 441 1663 441 
Q 2288 441 2617 861 
Q 2947 1281 2994 2138 
Q 2813 1869 2534 1725 
Q 2256 1581 1919 1581 
Q 1219 1581 811 2004 
Q 403 2428 403 3163 
Q 403 3881 828 4315 
Q 1253 4750 1959 4750 
Q 2769 4750 3195 4129 
Q 3622 3509 3622 2328 
Q 3622 1225 3098 567 
Q 2575 -91 1691 -91 
Q 1453 -91 1209 -44 
Q 966 3 703 97 
z
M 1959 2075 
Q 2384 2075 2632 2365 
Q 2881 2656 2881 3163 
Q 2881 3666 2632 3958 
Q 2384 4250 1959 4250 
Q 1534 4250 1286 3958 
Q 1038 3666 1038 3163 
Q 1038 2656 1286 2365 
Q 1534 2075 1959 2075 
z
" transform="scale(0.015625)"/>
       <path id="DejaVuSans-5f" d="M 3263 -1063 
L 3263 -1509 
L -63 -1509 
L -63 -1063 
L 3263 -1063 
z
" transform="scale(0.015625)"/>
       <path id="DejaVuSans-62" d="M 3116 1747 
Q 3116 2381 2855 2742 
Q 2594 3103 2138 3103 
Q 1681 3103 1420 2742 
Q 1159 2381 1159 1747 
Q 1159 1113 1420 752 
Q 1681 391 2138 391 
Q 2594 391 2855 752 
Q 3116 1113 3116 1747 
z
M 1159 2969 
Q 1341 3281 1617 3432 
Q 1894 3584 2278 3584 
Q 2916 3584 3314 3078 
Q 3713 2572 3713 1747 
Q 3713 922 3314 415 
Q 2916 -91 2278 -91 
Q 1894 -91 1617 61 
Q 1341 213 1159 525 
L 1159 0 
L 581 0 
L 581 4863 
L 1159 4863 
L 1159 2969 
z
" transform="scale(0.015625)"/>
       <path id="DejaVuSans-75" d="M 544 1381 
L 544 3500 
L 1119 3500 
L 1119 1403 
Q 1119 906 1312 657 
Q 1506 409 1894 409 
Q 2359 409 2629 706 
Q 2900 1003 2900 1516 
L 2900 3500 
L 3475 3500 
L 3475 0 
L 2900 0 
L 2900 538 
Q 2691 219 2414 64 
Q 2138 -91 1772 -91 
Q 1169 -91 856 284 
Q 544 659 544 1381 
z
M 1991 3584 
L 1991 3584 
z
" transform="scale(0.015625)"/>
       <path id="DejaVuSans-6d" d="M 3328 2828 
Q 3544 3216 3844 3400 
Q 4144 3584 4550 3584 
Q 5097 3584 5394 3201 
Q 5691 2819 5691 2113 
L 5691 0 
L 5113 0 
L 5113 2094 
Q 5113 2597 4934 2840 
Q 4756 3084 4391 3084 
Q 3944 3084 3684 2787 
Q 3425 2491 3425 1978 
L 3425 0 
L 2847 0 
L 2847 2094 
Q 2847 2600 2669 2842 
Q 2491 3084 2119 3084 
Q 1678 3084 1418 2786 
Q 1159 2488 1159 1978 
L 1159 0 
L 581 0 
L 581 3500 
L 1159 3500 
L 1159 2956 
Q 1356 3278 1631 3431 
Q 1906 3584 2284 3584 
Q 2666 3584 2933 3390 
Q 3200 3197 3328 2828 
z
" transform="scale(0.015625)"/>
       <path id="DejaVuSans-78" d="M 3513 3500 
L 2247 1797 
L 3578 0 
L 2900 0 
L 1881 1375 
L 863 0 
L 184 0 
L 1544 1831 
L 300 3500 
L 978 3500 
L 1906 2253 
L 2834 3500 
L 3513 3500 
z
" transform="scale(0.015625)"/>
      </defs>
      <use xlink:href="#DejaVuSans-34"/>
      <use xlink:href="#DejaVuSans-39" transform="translate(63.623047 0)"/>
      <use xlink:href="#DejaVuSans-34" transform="translate(127.246094 0)"/>
      <use xlink:href="#DejaVuSans-5f" transform="translate(190.869141 0)"/>
      <use xlink:href="#DejaVuSans-62" transform="translate(240.869141 0)"/>
      <use xlink:href="#DejaVuSans-75" transform="translate(304.345703 0)"/>
      <use xlink:href="#DejaVuSans-73" transform="translate(367.724609 0)"/>
      <use xlink:href="#DejaVuSans-2e" transform="translate(419.824219 0)"/>
      <use xlink:href="#DejaVuSans-6d" transform="translate(451.611328 0)"/>
      <use xlink:href="#DejaVuSans-74" transform="translate(549.023438 0)"/>
      <use xlink:href="#DejaVuSans-78" transform="translate(588.232422 0)"/>
     </g>
    </g>
    <g id="line2d_23">
     <path d="M 66.6 69.526688 
L 76.6 69.526688 
L 86.6 69.526688 
" style="fill: none; stroke: #ff7f0e; stroke-width: 1.5; stroke-linecap: square"/>
    </g>
    <g id="text_19">
     <!-- 662_bus.mtx -->
     <g transform="translate(94.6 73.026688) scale(0.1 -0.1)">
      <use xlink:href="#DejaVuSans-36"/>
      <use xlink:href="#DejaVuSans-36" transform="translate(63.623047 0)"/>
      <use xlink:href="#DejaVuSans-32" transform="translate(127.246094 0)"/>
      <use xlink:href="#DejaVuSans-5f" transform="translate(190.869141 0)"/>
      <use xlink:href="#DejaVuSans-62" transform="translate(240.869141 0)"/>
      <use xlink:href="#DejaVuSans-75" transform="translate(304.345703 0)"/>
      <use xlink:href="#DejaVuSans-73" transform="translate(367.724609 0)"/>
      <use xlink:href="#DejaVuSans-2e" transform="translate(419.824219 0)"/>
      <use xlink:href="#DejaVuSans-6d" transform="translate(451.611328 0)"/>
      <use xlink:href="#DejaVuSans-74" transform="translate(549.023438 0)"/>
      <use xlink:href="#DejaVuSans-78" transform="translate(588.232422 0)"/>
     </g>
    </g>
    <g id="line2d_24">
     <path d="M 66.6 84.482938 
L 76.6 84.482938 
L 86.6 84.482938 
" style="fill: none; stroke: #2ca02c; stroke-width: 1.5; stroke-linecap: square"/>
    </g>
    <g id="text_20">
     <!-- 685_bus.mtx -->
     <g transform="translate(94.6 87.982938) scale(0.1 -0.1)">
      <defs>
       <path id="DejaVuSans-35" d="M 691 4666 
L 3169 4666 
L 3169 4134 
L 1269 4134 
L 1269 2991 
Q 1406 3038 1543 3061 
Q 1681 3084 1819 3084 
Q 2600 3084 3056 2656 
Q 3513 2228 3513 1497 
Q 3513 744 3044 326 
Q 2575 -91 1722 -91 
Q 1428 -91 1123 -41 
Q 819 9 494 109 
L 494 744 
Q 775 591 1075 516 
Q 1375 441 1709 441 
Q 2250 441 2565 725 
Q 2881 1009 2881 1497 
Q 2881 1984 2565 2268 
Q 2250 2553 1709 2553 
Q 1456 2553 1204 2497 
Q 953 2441 691 2322 
L 691 4666 
z
" transform="scale(0.015625)"/>
      </defs>
      <use xlink:href="#DejaVuSans-36"/>
      <use xlink:href="#DejaVuSans-38" transform="translate(63.623047 0)"/>
      <use xlink:href="#DejaVuSans-35" transform="translate(127.246094 0)"/>
      <use xlink:href="#DejaVuSans-5f" transform="translate(190.869141 0)"/>
      <use xlink:href="#DejaVuSans-62" transform="translate(240.869141 0)"/>
      <use xlink:href="#DejaVuSans-75" transform="translate(304.345703 0)"/>
      <use xlink:href="#DejaVuSans-73" transform="translate(367.724609 0)"/>
      <use xlink:href="#DejaVuSans-2e" transform="translate(419.824219 0)"/>
      <use xlink:href="#DejaVuSans-6d" transform="translate(451.611328 0)"/>
      <use xlink:href="#DejaVuSans-74" transform="translate(549.023438 0)"/>
      <use xlink:href="#DejaVuSans-78" transform="translate(588.232422 0)"/>
     </g>
    </g>
    <g id="line2d_25">
     <path d="M 66.6 99.439188 
L 76.6 99.439188 
L 86.6 99.439188 
" style="fill: none; stroke: #d62728; stroke-width: 1.5; stroke-linecap: square"/>
    </g>
    <g id="text_21">
     <!-- 1138_bus.mtx -->
     <g transform="translate(94.6 102.939188) scale(0.1 -0.1)">
      <defs>
       <path id="DejaVuSans-33" d="M 2597 2516 
Q 3050 2419 3304 2112 
Q 3559 1806 3559 1356 
Q 3559 666 3084 287 
Q 2609 -91 1734 -91 
Q 1441 -91 1130 -33 
Q 819 25 488 141 
L 488 750 
Q 750 597 1062 519 
Q 1375 441 1716 441 
Q 2309 441 2620 675 
Q 2931 909 2931 1356 
Q 2931 1769 2642 2001 
Q 2353 2234 1838 2234 
L 1294 2234 
L 1294 2753 
L 1863 2753 
Q 2328 2753 2575 2939 
Q 2822 3125 2822 3475 
Q 2822 3834 2567 4026 
Q 2313 4219 1838 4219 
Q 1578 4219 1281 4162 
Q 984 4106 628 3988 
L 628 4550 
Q 988 4650 1302 4700 
Q 1616 4750 1894 4750 
Q 2613 4750 3031 4423 
Q 3450 4097 3450 3541 
Q 3450 3153 3228 2886 
Q 3006 2619 2597 2516 
z
" transform="scale(0.015625)"/>
      </defs>
      <use xlink:href="#DejaVuSans-31"/>
      <use xlink:href="#DejaVuSans-31" transform="translate(63.623047 0)"/>
      <use xlink:href="#DejaVuSans-33" transform="translate(127.246094 0)"/>
      <use xlink:href="#DejaVuSans-38" transform="translate(190.869141 0)"/>
      <use xlink:href="#DejaVuSans-5f" transform="translate(254.492188 0)"/>
      <use xlink:href="#DejaVuSans-62" transform="translate(304.492188 0)"/>
      <use xlink:href="#DejaVuSans-75" transform="translate(367.96875 0)"/>
      <use xlink:href="#DejaVuSans-73" transform="translate(431.347656 0)"/>
      <use xlink:href="#DejaVuSans-2e" transform="translate(483.447266 0)"/>
      <use xlink:href="#DejaVuSans-6d" transform="translate(515.234375 0)"/>
      <use xlink:href="#DejaVuSans-74" transform="translate(612.646484 0)"/>
      <use xlink:href="#DejaVuSans-78" transform="translate(651.855469 0)"/>
     </g>
    </g>
    <g id="line2d_26">
     <path d="M 66.6 114.395438 
L 76.6 114.395438 
L 86.6 114.395438 
" style="fill: none; stroke: #9467bd; stroke-width: 1.5; stroke-linecap: square"/>
    </g>
    <g id="text_22">
     <!-- arc130.mtx -->
     <g transform="translate(94.6 117.895438) scale(0.1 -0.1)">
      <use xlink:href="#DejaVuSans-61"/>
      <use xlink:href="#DejaVuSans-72" transform="translate(61.279297 0)"/>
      <use xlink:href="#DejaVuSans-63" transform="translate(100.142578 0)"/>
      <use xlink:href="#DejaVuSans-31" transform="translate(155.123047 0)"/>
      <use xlink:href="#DejaVuSans-33" transform="translate(218.746094 0)"/>
      <use xlink:href="#DejaVuSans-30" transform="translate(282.369141 0)"/>
      <use xlink:href="#DejaVuSans-2e" transform="translate(345.992188 0)"/>
      <use xlink:href="#DejaVuSans-6d" transform="translate(377.779297 0)"/>
      <use xlink:href="#DejaVuSans-74" transform="translate(475.191406 0)"/>
      <use xlink:href="#DejaVuSans-78" transform="translate(514.400391 0)"/>
     </g>
    </g>
    <g id="line2d_27">
     <path d="M 66.6 129.073563 
L 76.6 129.073563 
L 86.6 129.073563 
" style="fill: none; stroke: #8c564b; stroke-width: 1.5; stroke-linecap: square"/>
    </g>
    <g id="text_23">
     <!-- ash85.mtx -->
     <g transform="translate(94.6 132.573563) scale(0.1 -0.1)">
      <use xlink:href="#DejaVuSans-61"/>
      <use xlink:href="#DejaVuSans-73" transform="translate(61.279297 0)"/>
      <use xlink:href="#DejaVuSans-68" transform="translate(113.378906 0)"/>
      <use xlink:href="#DejaVuSans-38" transform="translate(176.757812 0)"/>
      <use xlink:href="#DejaVuSans-35" transform="translate(240.380859 0)"/>
      <use xlink:href="#DejaVuSans-2e" transform="translate(304.003906 0)"/>
      <use xlink:href="#DejaVuSans-6d" transform="translate(335.791016 0)"/>
      <use xlink:href="#DejaVuSans-74" transform="translate(433.203125 0)"/>
      <use xlink:href="#DejaVuSans-78" transform="translate(472.412109 0)"/>
     </g>
    </g>
    <g id="line2d_28">
     <path d="M 66.6 143.751688 
L 76.6 143.751688 
L 86.6 143.751688 
" style="fill: none; stroke: #e377c2; stroke-width: 1.5; stroke-linecap: square"/>
    </g>
    <g id="text_24">
     <!-- ash292.mtx -->
     <g transform="translate(94.6 147.251688) scale(0.1 -0.1)">
      <use xlink:href="#DejaVuSans-61"/>
      <use xlink:href="#DejaVuSans-73" transform="translate(61.279297 0)"/>
      <use xlink:href="#DejaVuSans-68" transform="translate(113.378906 0)"/>
      <use xlink:href="#DejaVuSans-32" transform="translate(176.757812 0)"/>
      <use xlink:href="#DejaVuSans-39" transform="translate(240.380859 0)"/>
      <use xlink:href="#DejaVuSans-32" transform="translate(304.003906 0)"/>
      <use xlink:href="#DejaVuSans-2e" transform="translate(367.626953 0)"/>
      <use xlink:href="#DejaVuSans-6d" transform="translate(399.414062 0)"/>
      <use xlink:href="#DejaVuSans-74" transform="translate(496.826172 0)"/>
      <use xlink:href="#DejaVuSans-78" transform="translate(536.035156 0)"/>
     </g>
    </g>
   </g>
  </g>
 </g>
 <defs>
  <clipPath id="pe5a8c63530">
   <rect x="57.6" y="41.472" width="357.12" height="266.112"/>
  </clipPath>
 </defs>
</svg>
