<?xml version="1.0" encoding="utf-8" standalone="no"?>
<!DOCTYPE svg PUBLIC "-//W3C//DTD SVG 1.1//EN"
  "http://www.w3.org/Graphics/SVG/1.1/DTD/svg11.dtd">
<svg xmlns:xlink="http://www.w3.org/1999/xlink" width="460.8pt" height="345.6pt" viewBox="0 0 460.8 345.6" xmlns="http://www.w3.org/2000/svg" version="1.1">
 <metadata>
  <rdf:RDF xmlns:dc="http://purl.org/dc/elements/1.1/" xmlns:cc="http://creativecommons.org/ns#" xmlns:rdf="http://www.w3.org/1999/02/22-rdf-syntax-ns#">
   <cc:Work>
    <dc:type rdf:resource="http://purl.org/dc/dcmitype/StillImage"/>
    <dc:date>2026-02-27T10:05:58.291353</dc:date>
    <dc:format>image/svg+xml</dc:format>
    <dc:creator>
     <cc:Agent>
      <dc:title>Matplotlib v3.10.8, https://matplotlib.org/</dc:title>
     </cc:Agent>
    </dc:creator>
   </cc:Work>
  </rdf:RDF>
 </metadata>
 <defs>
  <style type="text/css">*{stroke-linejoin: round; stroke-linecap: butt}</style>
 </defs>
 <g id="figure_1">
  <g id="patch_1">
   <path d="M 0 345.6 
L 460.8 345.6 
L 460.8 0 
L 0 0 
z
" style="fill: #ffffff"/>
  </g>
  <g id="axes_1">
   <g id="patch_2">
    <path d="M 57.6 307.584 
L 414.72 307.584 
L 414.72 41.472 
L 57.6 41.472 
z
" style="fill: #ffffff"/>
   </g>
   <g id="matplotlib.axis_1">
    <g id="xtick_1">
     <g id="line2d_1">
      <defs>
       <path id="m1460ceae3d" d="M 0 0 
L 0 3.5 
" style="stroke: #000000; stroke-width: 0.8"/>
      </defs>
      <g>
       <use xlink:href="#m1460ceae3d" x="73.832727" y="307.584" style="stroke: #000000; stroke-width: 0.8"/>
      </g>
     </g>
     <g id="text_1">
      <!-- 1.0 -->
      <g transform="translate(65.881165 322.182437) scale(0.1 -0.1)">
       <defs>
        <path id="DejaVuSans-31" d="M 794 531 
L 1825 531 
L 1825 4091 
L 703 3866 
L 703 4441 
L 1819 4666 
L 2450 4666 
L 2450 531 
L 3481 531 
L 3481 0 
L 794 0 
L 794 531 
z
" transform="scale(0.015625)"/>
        <path id="DejaVuSans-2e" d="M 684 794 
L 1344 794 
L 1344 0 
L 684 0 
L 684 794 
z
" transform="scale(0.015625)"/>
        <path id="DejaVuSans-30" d="M 2034 4250 
Q 1547 4250 1301 3770 
Q 1056 3291 1056 2328 
Q 1056 1369 1301 889 
Q 1547 409 2034 409 
Q 2525 409 2770 889 
Q 3016 1369 3016 2328 
Q 3016 3291 2770 3770 
Q 2525 4250 2034 4250 
z
M 2034 4750 
Q 2819 4750 3233 4129 
Q 3647 3509 3647 2328 
Q 3647 1150 3233 529 
Q 2819 -91 2034 -91 
Q 1250 -91 836 529 
Q 422 1150 422 2328 
Q 422 3509 836 4129 
Q 1250 4750 2034 4750 
z
" transform="scale(0.015625)"/>
       </defs>
       <use xlink:href="#DejaVuSans-31"/>
       <use xlink:href="#DejaVuSans-2e" transform="translate(63.623047 0)"/>
       <use xlink:href="#DejaVuSans-30" transform="translate(95.410156 0)"/>
      </g>
     </g>
    </g>
    <g id="xtick_2">
     <g id="line2d_2">
      <g>
       <use xlink:href="#m1460ceae3d" x="127.941818" y="307.584" style="stroke: #000000; stroke-width: 0.8"/>
      </g>
     </g>
     <g id="text_2">
      <!-- 1.5 -->
      <g transform="translate(119.990256 322.182437) scale(0.1 -0.1)">
       <defs>
        <path id="DejaVuSans-35" d="M 691 4666 
L 3169 4666 
L 3169 4134 
L 1269 4134 
L 1269 2991 
Q 1406 3038 1543 3061 
Q 1681 3084 1819 3084 
Q 2600 3084 3056 2656 
Q 3513 2228 3513 1497 
Q 3513 744 3044 326 
Q 2575 -91 1722 -91 
Q 1428 -91 1123 -41 
Q 819 9 494 109 
L 494 744 
Q 775 591 1075 516 
Q 1375 441 1709 441 
Q 2250 441 2565 725 
Q 2881 1009 2881 1497 
Q 2881 1984 2565 2268 
Q 2250 2553 1709 2553 
Q 1456 2553 1204 2497 
Q 953 2441 691 2322 
L 691 4666 
z
" transform="scale(0.015625)"/>
       </defs>
       <use xlink:href="#DejaVuSans-31"/>
       <use xlink:href="#DejaVuSans-2e" transform="translate(63.623047 0)"/>
       <use xlink:href="#DejaVuSans-35" transform="translate(95.410156 0)"/>
      </g>
     </g>
    </g>
    <g id="xtick_3">
     <g id="line2d_3">
      <g>
       <use xlink:href="#m1460ceae3d" x="182.050909" y="307.584" style="stroke: #000000; stroke-width: 0.8"/>
      </g>
     </g>
     <g id="text_3">
      <!-- 2.0 -->
      <g transform="translate(174.099347 322.182437) scale(0.1 -0.1)">
       <defs>
        <path id="DejaVuSans-32" d="M 1228 531 
L 3431 531 
L 3431 0 
L 469 0 
L 469 531 
Q 828 903 1448 1529 
Q 2069 2156 2228 2338 
Q 2531 2678 2651 2914 
Q 2772 3150 2772 3378 
Q 2772 3750 2511 3984 
Q 2250 4219 1831 4219 
Q 1534 4219 1204 4116 
Q 875 4013 500 3803 
L 500 4441 
Q 881 4594 1212 4672 
Q 1544 4750 1819 4750 
Q 2544 4750 2975 4387 
Q 3406 4025 3406 3419 
Q 3406 3131 3298 2873 
Q 3191 2616 2906 2266 
Q 2828 2175 2409 1742 
Q 1991 1309 1228 531 
z
" transform="scale(0.015625)"/>
       </defs>
       <use xlink:href="#DejaVuSans-32"/>
       <use xlink:href="#DejaVuSans-2e" transform="translate(63.623047 0)"/>
       <use xlink:href="#DejaVuSans-30" transform="translate(95.410156 0)"/>
      </g>
     </g>
    </g>
    <g id="xtick_4">
     <g id="line2d_4">
      <g>
       <use xlink:href="#m1460ceae3d" x="236.16" y="307.584" style="stroke: #000000; stroke-width: 0.8"/>
      </g>
     </g>
     <g id="text_4">
      <!-- 2.5 -->
      <g transform="translate(228.208437 322.182437) scale(0.1 -0.1)">
       <use xlink:href="#DejaVuSans-32"/>
       <use xlink:href="#DejaVuSans-2e" transform="translate(63.623047 0)"/>
       <use xlink:href="#DejaVuSans-35" transform="translate(95.410156 0)"/>
      </g>
     </g>
    </g>
    <g id="xtick_5">
     <g id="line2d_5">
      <g>
       <use xlink:href="#m1460ceae3d" x="290.269091" y="307.584" style="stroke: #000000; stroke-width: 0.8"/>
      </g>
     </g>
     <g id="text_5">
      <!-- 3.0 -->
      <g transform="translate(282.317528 322.182437) scale(0.1 -0.1)">
       <defs>
        <path id="DejaVuSans-33" d="M 2597 2516 
Q 3050 2419 3304 2112 
Q 3559 1806 3559 1356 
Q 3559 666 3084 287 
Q 2609 -91 1734 -91 
Q 1441 -91 1130 -33 
Q 819 25 488 141 
L 488 750 
Q 750 597 1062 519 
Q 1375 441 1716 441 
Q 2309 441 2620 675 
Q 2931 909 2931 1356 
Q 2931 1769 2642 2001 
Q 2353 2234 1838 2234 
L 1294 2234 
L 1294 2753 
L 1863 2753 
Q 2328 2753 2575 2939 
Q 2822 3125 2822 3475 
Q 2822 3834 2567 4026 
Q 2313 4219 1838 4219 
Q 1578 4219 1281 4162 
Q 984 4106 628 3988 
L 628 4550 
Q 988 4650 1302 4700 
Q 1616 4750 1894 4750 
Q 2613 4750 3031 4423 
Q 3450 4097 3450 3541 
Q 3450 3153 3228 2886 
Q 3006 2619 2597 2516 
z
" transform="scale(0.015625)"/>
       </defs>
       <use xlink:href="#DejaVuSans-33"/>
       <use xlink:href="#DejaVuSans-2e" transform="translate(63.623047 0)"/>
       <use xlink:href="#DejaVuSans-30" transform="translate(95.410156 0)"/>
      </g>
     </g>
    </g>
    <g id="xtick_6">
     <g id="line2d_6">
      <g>
       <use xlink:href="#m1460ceae3d" x="344.378182" y="307.584" style="stroke: #000000; stroke-width: 0.8"/>
      </g>
     </g>
     <g id="text_6">
      <!-- 3.5 -->
      <g transform="translate(336.426619 322.182437) scale(0.1 -0.1)">
       <use xlink:href="#DejaVuSans-33"/>
       <use xlink:href="#DejaVuSans-2e" transform="translate(63.623047 0)"/>
       <use xlink:href="#DejaVuSans-35" transform="translate(95.410156 0)"/>
      </g>
     </g>
    </g>
    <g id="xtick_7">
     <g id="line2d_7">
      <g>
       <use xlink:href="#m1460ceae3d" x="398.487273" y="307.584" style="stroke: #000000; stroke-width: 0.8"/>
      </g>
     </g>
     <g id="text_7">
      <!-- 4.0 -->
      <g transform="translate(390.53571 322.182437) scale(0.1 -0.1)">
       <defs>
        <path id="DejaVuSans-34" d="M 2419 4116 
L 825 1625 
L 2419 1625 
L 2419 4116 
z
M 2253 4666 
L 3047 4666 
L 3047 1625 
L 3713 1625 
L 3713 1100 
L 3047 1100 
L 3047 0 
L 2419 0 
L 2419 1100 
L 313 1100 
L 313 1709 
L 2253 4666 
z
" transform="scale(0.015625)"/>
       </defs>
       <use xlink:href="#DejaVuSans-34"/>
       <use xlink:href="#DejaVuSans-2e" transform="translate(63.623047 0)"/>
       <use xlink:href="#DejaVuSans-30" transform="translate(95.410156 0)"/>
      </g>
     </g>
    </g>
    <g id="text_8">
     <!-- s -->
     <g transform="translate(233.555312 335.860562) scale(0.1 -0.1)">
      <defs>
       <path id="DejaVuSans-73" d="M 2834 3397 
L 2834 2853 
Q 2591 2978 2328 3040 
Q 2066 3103 1784 3103 
Q 1356 3103 1142 2972 
Q 928 2841 928 2578 
Q 928 2378 1081 2264 
Q 1234 2150 1697 2047 
L 1894 2003 
Q 2506 1872 2764 1633 
Q 3022 1394 3022 966 
Q 3022 478 2636 193 
Q 2250 -91 1575 -91 
Q 1294 -91 989 -36 
Q 684 19 347 128 
L 347 722 
Q 666 556 975 473 
Q 1284 391 1588 391 
Q 1994 391 2212 530 
Q 2431 669 2431 922 
Q 2431 1156 2273 1281 
Q 2116 1406 1581 1522 
L 1381 1569 
Q 847 1681 609 1914 
Q 372 2147 372 2553 
Q 372 3047 722 3315 
Q 1072 3584 1716 3584 
Q 2034 3584 2315 3537 
Q 2597 3491 2834 3397 
z
" transform="scale(0.015625)"/>
      </defs>
      <use xlink:href="#DejaVuSans-73"/>
     </g>
    </g>
   </g>
   <g id="matplotlib.axis_2">
    <g id="ytick_1">
     <g id="line2d_8">
      <defs>
       <path id="m185feaace6" d="M 0 0 
L -3.5 0 
" style="stroke: #000000; stroke-width: 0.8"/>
      </defs>
      <g>
       <use xlink:href="#m185feaace6" x="57.6" y="295.488" style="stroke: #000000; stroke-width: 0.8"/>
      </g>
     </g>
     <g id="text_9">
      <!-- 0.0 -->
      <g transform="translate(34.696875 299.287219) scale(0.1 -0.1)">
       <use xlink:href="#DejaVuSans-30"/>
       <use xlink:href="#DejaVuSans-2e" transform="translate(63.623047 0)"/>
       <use xlink:href="#DejaVuSans-30" transform="translate(95.410156 0)"/>
      </g>
     </g>
    </g>
    <g id="ytick_2">
     <g id="line2d_9">
      <g>
       <use xlink:href="#m185feaace6" x="57.6" y="261.275345" style="stroke: #000000; stroke-width: 0.8"/>
      </g>
     </g>
     <g id="text_10">
      <!-- 0.2 -->
      <g transform="translate(34.696875 265.074564) scale(0.1 -0.1)">
       <use xlink:href="#DejaVuSans-30"/>
       <use xlink:href="#DejaVuSans-2e" transform="translate(63.623047 0)"/>
       <use xlink:href="#DejaVuSans-32" transform="translate(95.410156 0)"/>
      </g>
     </g>
    </g>
    <g id="ytick_3">
     <g id="line2d_10">
      <g>
       <use xlink:href="#m185feaace6" x="57.6" y="227.062691" style="stroke: #000000; stroke-width: 0.8"/>
      </g>
     </g>
     <g id="text_11">
      <!-- 0.4 -->
      <g transform="translate(34.696875 230.86191) scale(0.1 -0.1)">
       <use xlink:href="#DejaVuSans-30"/>
       <use xlink:href="#DejaVuSans-2e" transform="translate(63.623047 0)"/>
       <use xlink:href="#DejaVuSans-34" transform="translate(95.410156 0)"/>
      </g>
     </g>
    </g>
    <g id="ytick_4">
     <g id="line2d_11">
      <g>
       <use xlink:href="#m185feaace6" x="57.6" y="192.850036" style="stroke: #000000; stroke-width: 0.8"/>
      </g>
     </g>
     <g id="text_12">
      <!-- 0.6 -->
      <g transform="translate(34.696875 196.649255) scale(0.1 -0.1)">
       <defs>
        <path id="DejaVuSans-36" d="M 2113 2584 
Q 1688 2584 1439 2293 
Q 1191 2003 1191 1497 
Q 1191 994 1439 701 
Q 1688 409 2113 409 
Q 2538 409 2786 701 
Q 3034 994 3034 1497 
Q 3034 2003 2786 2293 
Q 2538 2584 2113 2584 
z
M 3366 4563 
L 3366 3988 
Q 3128 4100 2886 4159 
Q 2644 4219 2406 4219 
Q 1781 4219 1451 3797 
Q 1122 3375 1075 2522 
Q 1259 2794 1537 2939 
Q 1816 3084 2150 3084 
Q 2853 3084 3261 2657 
Q 3669 2231 3669 1497 
Q 3669 778 3244 343 
Q 2819 -91 2113 -91 
Q 1303 -91 875 529 
Q 447 1150 447 2328 
Q 447 3434 972 4092 
Q 1497 4750 2381 4750 
Q 2619 4750 2861 4703 
Q 3103 4656 3366 4563 
z
" transform="scale(0.015625)"/>
       </defs>
       <use xlink:href="#DejaVuSans-30"/>
       <use xlink:href="#DejaVuSans-2e" transform="translate(63.623047 0)"/>
       <use xlink:href="#DejaVuSans-36" transform="translate(95.410156 0)"/>
      </g>
     </g>
    </g>
    <g id="ytick_5">
     <g id="line2d_12">
      <g>
       <use xlink:href="#m185feaace6" x="57.6" y="158.637382" style="stroke: #000000; stroke-width: 0.8"/>
      </g>
     </g>
     <g id="text_13">
      <!-- 0.8 -->
      <g transform="translate(34.696875 162.436601) scale(0.1 -0.1)">
       <defs>
        <path id="DejaVuSans-38" d="M 2034 2216 
Q 1584 2216 1326 1975 
Q 1069 1734 1069 1313 
Q 1069 891 1326 650 
Q 1584 409 2034 409 
Q 2484 409 2743 651 
Q 3003 894 3003 1313 
Q 3003 1734 2745 1975 
Q 2488 2216 2034 2216 
z
M 1403 2484 
Q 997 2584 770 2862 
Q 544 3141 544 3541 
Q 544 4100 942 4425 
Q 1341 4750 2034 4750 
Q 2731 4750 3128 4425 
Q 3525 4100 3525 3541 
Q 3525 3141 3298 2862 
Q 3072 2584 2669 2484 
Q 3125 2378 3379 2068 
Q 3634 1759 3634 1313 
Q 3634 634 3220 271 
Q 2806 -91 2034 -91 
Q 1263 -91 848 271 
Q 434 634 434 1313 
Q 434 1759 690 2068 
Q 947 2378 1403 2484 
z
M 1172 3481 
Q 1172 3119 1398 2916 
Q 1625 2713 2034 2713 
Q 2441 2713 2670 2916 
Q 2900 3119 2900 3481 
Q 2900 3844 2670 4047 
Q 2441 4250 2034 4250 
Q 1625 4250 1398 4047 
Q 1172 3844 1172 3481 
z
" transform="scale(0.015625)"/>
       </defs>
       <use xlink:href="#DejaVuSans-30"/>
       <use xlink:href="#DejaVuSans-2e" transform="translate(63.623047 0)"/>
       <use xlink:href="#DejaVuSans-38" transform="translate(95.410156 0)"/>
      </g>
     </g>
    </g>
    <g id="ytick_6">
     <g id="line2d_13">
      <g>
       <use xlink:href="#m185feaace6" x="57.6" y="124.424727" style="stroke: #000000; stroke-width: 0.8"/>
      </g>
     </g>
     <g id="text_14">
      <!-- 1.0 -->
      <g transform="translate(34.696875 128.223946) scale(0.1 -0.1)">
       <use xlink:href="#DejaVuSans-31"/>
       <use xlink:href="#DejaVuSans-2e" transform="translate(63.623047 0)"/>
       <use xlink:href="#DejaVuSans-30" transform="translate(95.410156 0)"/>
      </g>
     </g>
    </g>
    <g id="ytick_7">
     <g id="line2d_14">
      <g>
       <use xlink:href="#m185feaace6" x="57.6" y="90.212073" style="stroke: #000000; stroke-width: 0.8"/>
      </g>
     </g>
     <g id="text_15">
      <!-- 1.2 -->
      <g transform="translate(34.696875 94.011292) scale(0.1 -0.1)">
       <use xlink:href="#DejaVuSans-31"/>
       <use xlink:href="#DejaVuSans-2e" transform="translate(63.623047 0)"/>
       <use xlink:href="#DejaVuSans-32" transform="translate(95.410156 0)"/>
      </g>
     </g>
    </g>
    <g id="ytick_8">
     <g id="line2d_15">
      <g>
       <use xlink:href="#m185feaace6" x="57.6" y="55.999418" style="stroke: #000000; stroke-width: 0.8"/>
      </g>
     </g>
     <g id="text_16">
      <!-- 1.4 -->
      <g transform="translate(34.696875 59.798637) scale(0.1 -0.1)">
       <use xlink:href="#DejaVuSans-31"/>
       <use xlink:href="#DejaVuSans-2e" transform="translate(63.623047 0)"/>
       <use xlink:href="#DejaVuSans-34" transform="translate(95.410156 0)"/>
      </g>
     </g>
    </g>
    <g id="text_17">
     <!-- $||e - \tilde e||$ -->
     <g transform="translate(28.296875 193.578) rotate(-90) scale(0.1 -0.1)">
      <defs>
       <path id="DejaVuSans-7c" d="M 1344 4891 
L 1344 -1509 
L 813 -1509 
L 813 4891 
L 1344 4891 
z
" transform="scale(0.015625)"/>
       <path id="DejaVuSans-Oblique-65" d="M 3078 2063 
Q 3088 2113 3092 2166 
Q 3097 2219 3097 2272 
Q 3097 2653 2873 2875 
Q 2650 3097 2266 3097 
Q 1838 3097 1509 2826 
Q 1181 2556 1013 2059 
L 3078 2063 
z
M 3578 1613 
L 903 1613 
Q 884 1494 878 1425 
Q 872 1356 872 1306 
Q 872 872 1139 634 
Q 1406 397 1894 397 
Q 2269 397 2603 481 
Q 2938 566 3225 728 
L 3116 159 
Q 2806 34 2476 -28 
Q 2147 -91 1806 -91 
Q 1078 -91 686 257 
Q 294 606 294 1247 
Q 294 1794 489 2264 
Q 684 2734 1063 3103 
Q 1306 3334 1642 3459 
Q 1978 3584 2356 3584 
Q 2950 3584 3301 3228 
Q 3653 2872 3653 2272 
Q 3653 2128 3634 1964 
Q 3616 1800 3578 1613 
z
" transform="scale(0.015625)"/>
       <path id="DejaVuSans-2212" d="M 678 2272 
L 4684 2272 
L 4684 1741 
L 678 1741 
L 678 2272 
z
" transform="scale(0.015625)"/>
       <path id="DejaVuSans-303" d="M -1621 4281 
L -1799 4453 
Q -1867 4516 -1919 4545 
Q -1971 4575 -2011 4575 
Q -2130 4575 -2186 4461 
Q -2242 4347 -2249 4091 
L -2639 4091 
Q -2633 4513 -2473 4742 
Q -2314 4972 -2030 4972 
Q -1911 4972 -1811 4928 
Q -1711 4884 -1596 4781 
L -1417 4609 
Q -1349 4547 -1297 4517 
Q -1246 4488 -1205 4488 
Q -1086 4488 -1030 4602 
Q -974 4716 -967 4972 
L -577 4972 
Q -583 4550 -742 4320 
Q -902 4091 -1186 4091 
Q -1305 4091 -1405 4134 
Q -1505 4178 -1621 4281 
z
" transform="scale(0.015625)"/>
      </defs>
      <use xlink:href="#DejaVuSans-7c" transform="translate(0 0.734375)"/>
      <use xlink:href="#DejaVuSans-7c" transform="translate(33.691406 0.734375)"/>
      <use xlink:href="#DejaVuSans-Oblique-65" transform="translate(67.382812 0.734375)"/>
      <use xlink:href="#DejaVuSans-2212" transform="translate(148.388672 0.734375)"/>
      <use xlink:href="#DejaVuSans-303" transform="translate(310.015625 5.3125)"/>
      <use xlink:href="#DejaVuSans-Oblique-65" transform="translate(251.660156 0.734375)"/>
      <use xlink:href="#DejaVuSans-7c" transform="translate(313.183594 0.734375)"/>
      <use xlink:href="#DejaVuSans-7c" transform="translate(346.875 0.734375)"/>
     </g>
    </g>
   </g>
   <g id="line2d_16">
    <path d="M 73.832727 295.488 
L 77.112066 291.974124 
L 80.391405 262.249979 
L 83.670744 259.720793 
L 86.950083 252.428125 
L 90.229421 284.670656 
L 93.50876 262.355213 
L 96.788099 271.4759 
L 100.067438 233.09009 
L 103.346777 217.226398 
L 106.626116 180.070515 
L 109.905455 196.106952 
L 113.184793 222.869338 
L 116.464132 229.767421 
L 119.743471 207.822914 
L 123.02281 113.514977 
L 126.302149 143.230428 
L 129.581488 140.560782 
L 132.860826 165.97219 
L 136.140165 163.377871 
L 139.419504 155.589617 
L 142.698843 178.822801 
L 145.978182 143.312596 
L 149.257521 125.396617 
L 152.53686 176.157751 
L 155.816198 181.275453 
L 159.095537 161.598426 
L 162.374876 215.772122 
L 165.654215 136.211198 
L 168.933554 148.35199 
L 172.212893 145.769966 
L 175.492231 106.179308 
L 178.77157 168.893272 
L 182.050909 182.661139 
L 185.330248 142.402088 
L 188.609587 93.055437 
L 191.888926 164.902913 
L 195.168264 134.262713 
L 198.447603 123.989151 
L 201.726942 105.125302 
L 205.006281 136.781837 
L 208.28562 140.074079 
L 211.564959 116.484884 
L 214.844298 140.695888 
L 218.123636 153.469466 
L 221.402975 145.772931 
L 224.682314 68.908791 
L 227.961653 133.929508 
L 231.240992 141.190765 
L 234.520331 117.282342 
L 237.799669 134.163435 
L 241.079008 145.92238 
L 244.358347 92.728919 
L 247.637686 149.2376 
L 250.917025 138.355296 
L 254.196364 145.15702 
L 257.475702 129.071577 
L 260.755041 100.42809 
L 264.03438 101.316523 
L 267.313719 101.410024 
L 270.593058 115.184851 
L 273.872397 132.401677 
L 277.151736 116.794991 
L 280.431074 74.31674 
L 283.710413 122.320735 
L 286.989752 115.334302 
L 290.269091 142.794279 
L 293.54843 155.915851 
L 296.827769 138.698819 
L 300.107107 53.568 
L 303.386446 149.839226 
L 306.665785 103.286059 
L 309.945124 82.739564 
L 313.224463 95.060327 
L 316.503802 121.646444 
L 319.78314 82.739566 
L 323.062479 135.623276 
L 326.341818 84.451151 
L 329.621157 67.398776 
L 332.900496 103.379562 
L 336.179835 99.791939 
L 339.459174 102.468187 
L 342.738512 112.112702 
L 346.017851 93.348951 
L 349.29719 84.357649 
L 352.576529 120.985187 
L 355.855868 100.019608 
L 359.135207 104.631625 
L 362.414545 143.028668 
L 365.693884 70.526873 
L 368.973223 84.3017 
L 372.252562 98.464192 
L 375.531901 116.747137 
L 378.81124 81.229552 
L 382.090579 98.188424 
L 385.369917 82.69024 
L 388.649256 99.565998 
L 391.928595 53.568 
L 395.207934 98.188425 
L 398.487273 70.620375 
" clip-path="url(#pd6860efe02)" style="fill: none; stroke: #1f77b4; stroke-width: 1.5; stroke-linecap: square"/>
   </g>
   <g id="line2d_17">
    <path d="M 73.832727 295.488 
L 77.112066 295.487411 
L 80.391405 287.503746 
L 83.670744 247.053762 
L 86.950083 216.877012 
L 90.229421 235.072301 
L 93.50876 235.071231 
L 96.788099 232.013083 
L 100.067438 230.053756 
L 103.346777 183.743866 
L 106.626116 208.977504 
L 109.905455 222.132585 
L 113.184793 211.042771 
L 116.464132 233.207875 
L 119.743471 257.365018 
L 123.02281 229.917761 
L 126.302149 216.968722 
L 129.581488 140.495073 
L 132.860826 229.093993 
L 136.140165 231.30688 
L 139.419504 223.899793 
L 142.698843 201.959984 
L 145.978182 208.941332 
L 149.257521 209.517956 
L 152.53686 214.090669 
L 155.816198 248.303219 
L 159.095537 164.727619 
L 162.374876 159.478308 
L 165.654215 184.930086 
L 168.933554 186.92624 
L 172.212893 183.016296 
L 175.492231 183.436231 
L 178.77157 179.723934 
L 182.050909 153.376254 
L 185.330248 140.726229 
L 188.609587 188.753591 
L 191.888926 194.62388 
L 195.168264 157.434761 
L 198.447603 111.080298 
L 201.726942 107.164681 
L 205.006281 140.516458 
L 208.28562 168.498014 
L 211.564959 203.678356 
L 214.844298 107.09849 
L 218.123636 164.686057 
L 221.402975 109.289188 
L 224.682314 196.562004 
L 227.961653 173.707614 
L 231.240992 144.399496 
L 234.520331 188.498276 
L 237.799669 157.320179 
L 241.079008 203.128293 
L 244.358347 153.36676 
L 247.637686 133.100979 
L 250.917025 146.228549 
L 254.196364 168.467938 
L 257.475702 122.283762 
L 260.755041 153.4918 
L 264.03438 120.141928 
L 267.313719 191.978215 
L 270.593058 124.040779 
L 273.872397 124.092482 
L 277.151736 157.551148 
L 280.431074 116.273566 
L 283.710413 166.470502 
L 286.989752 148.099448 
L 290.269091 133.292092 
L 293.54843 107.122973 
L 296.827769 122.352086 
L 300.107107 111.092103 
L 303.386446 157.361621 
L 306.665785 146.226735 
L 309.945124 98.053575 
L 313.224463 159.293953 
L 316.503802 110.967513 
L 319.78314 144.295412 
L 323.062479 135.225517 
L 326.341818 108.967641 
L 329.621157 135.121743 
L 332.900496 146.293498 
L 336.179835 131.232148 
L 339.459174 157.448856 
L 342.738512 124.092415 
L 346.017851 111.117927 
L 349.29719 99.922933 
L 352.576529 146.29125 
L 355.855868 86.858478 
L 359.135207 98.093257 
L 362.414545 111.029426 
L 365.693884 118.166129 
L 368.973223 146.231656 
L 372.252562 118.165833 
L 375.531901 120.226465 
L 378.81124 64.635331 
L 382.090579 129.338095 
L 385.369917 77.723966 
L 388.649256 122.160762 
L 391.928595 86.922461 
L 395.207934 86.833979 
L 398.487273 124.182811 
" clip-path="url(#pd6860efe02)" style="fill: none; stroke: #ff7f0e; stroke-width: 1.5; stroke-linecap: square"/>
   </g>
   <g id="line2d_18">
    <path d="M 73.832727 295.488 
L 77.112066 295.426646 
L 80.391405 295.366225 
L 83.670744 295.453752 
L 86.950083 271.040682 
L 90.229421 295.282521 
L 93.50876 294.969919 
L 96.788099 198.48993 
L 100.067438 271.054617 
L 103.346777 222.69752 
L 106.626116 222.50781 
L 109.905455 198.567256 
L 113.184793 222.547028 
L 116.464132 246.647789 
L 119.743471 198.420243 
L 123.02281 246.960336 
L 126.302149 222.612879 
L 129.581488 222.339969 
L 132.860826 174.236597 
L 136.140165 222.488507 
L 139.419504 222.658936 
L 142.698843 181.350859 
L 145.978182 198.41317 
L 149.257521 149.994624 
L 152.53686 198.369955 
L 155.816198 77.679801 
L 159.095537 198.382678 
L 162.374876 150.066376 
L 165.654215 150.171954 
L 168.933554 198.534532 
L 172.212893 77.699279 
L 175.492231 246.585233 
L 178.77157 174.073263 
L 182.050909 125.90525 
L 185.330248 198.316258 
L 188.609587 150.000877 
L 191.888926 125.908783 
L 195.168264 150.118004 
L 198.447603 149.995028 
L 201.726942 222.426284 
L 205.006281 174.199204 
L 208.28562 174.15973 
L 211.564959 174.092395 
L 214.844298 125.900682 
L 218.123636 174.103713 
L 221.402975 101.890712 
L 224.682314 222.353579 
L 227.961653 125.881962 
L 231.240992 101.759708 
L 234.520331 198.227788 
L 237.799669 174.170253 
L 241.079008 101.771051 
L 244.358347 125.845981 
L 247.637686 125.890985 
L 250.917025 125.868834 
L 254.196364 125.857324 
L 257.475702 125.88797 
L 260.755041 126.029605 
L 264.03438 125.876895 
L 267.313719 174.100039 
L 270.593058 198.270582 
L 273.872397 174.070676 
L 277.151736 174.135293 
L 280.431074 125.896844 
L 283.710413 125.956289 
L 286.989752 149.97545 
L 290.269091 150.099783 
L 293.54843 125.91934 
L 296.827769 101.745745 
L 300.107107 101.745617 
L 303.386446 101.813867 
L 306.665785 101.745617 
L 309.945124 77.699292 
L 313.224463 101.804704 
L 316.503802 149.960159 
L 319.78314 125.890977 
L 323.062479 125.902063 
L 326.341818 149.957692 
L 329.621157 101.785571 
L 332.900496 174.028762 
L 336.179835 101.750688 
L 339.459174 77.69121 
L 342.738512 174.108497 
L 346.017851 174.041366 
L 349.29719 149.955112 
L 352.576529 125.82682 
L 355.855868 101.759707 
L 359.135207 53.568 
L 362.414545 198.151879 
L 365.693884 125.868816 
L 368.973223 77.659345 
L 372.252562 101.764782 
L 375.531901 101.777476 
L 378.81124 101.8393 
L 382.090579 53.568047 
L 385.369917 198.14679 
L 388.649256 125.900153 
L 391.928595 77.727594 
L 395.207934 77.654273 
L 398.487273 149.913094 
" clip-path="url(#pd6860efe02)" style="fill: none; stroke: #2ca02c; stroke-width: 1.5; stroke-linecap: square"/>
   </g>
   <g id="line2d_19">
    <path d="M 73.832727 295.488 
L 77.112066 222.911558 
L 80.391405 271.244524 
L 83.670744 222.906667 
L 86.950083 198.553167 
L 90.229421 266.563848 
L 93.50876 126.104064 
L 96.788099 164.816419 
L 100.067438 142.121504 
L 103.346777 122.168786 
L 106.626116 187.91888 
L 109.905455 109.376894 
L 113.184793 91.8204 
L 116.464132 119.215856 
L 119.743471 181.985686 
L 123.02281 94.705644 
L 126.302149 175.32808 
L 129.581488 98.995452 
L 132.860826 149.577886 
L 136.140165 76.024564 
L 139.419504 87.408417 
L 142.698843 101.265455 
L 145.978182 98.709442 
L 149.257521 117.138355 
L 152.53686 126.289782 
L 155.816198 113.884794 
L 159.095537 111.587251 
L 162.374876 87.512843 
L 165.654215 131.505199 
L 168.933554 125.75897 
L 172.212893 75.394857 
L 175.492231 127.171521 
L 178.77157 68.955131 
L 182.050909 131.479723 
L 185.330248 98.227223 
L 188.609587 109.432369 
L 191.888926 76.275688 
L 195.168264 130.470462 
L 198.447603 112.027556 
L 201.726942 157.004923 
L 205.006281 105.716803 
L 208.28562 103.986466 
L 211.564959 101.417126 
L 214.844298 70.665164 
L 218.123636 101.470097 
L 221.402975 127.471668 
L 224.682314 127.686673 
L 227.961653 87.661798 
L 231.240992 101.502597 
L 234.520331 121.650384 
L 237.799669 68.954547 
L 241.079008 81.27916 
L 244.358347 68.955313 
L 247.637686 114.254113 
L 250.917025 118.658642 
L 254.196364 107.730028 
L 257.475702 70.665124 
L 260.755041 98.468828 
L 264.03438 119.250666 
L 267.313719 84.372693 
L 270.593058 68.95463 
L 273.872397 105.516362 
L 277.151736 92.491688 
L 280.431074 70.665025 
L 283.710413 82.810179 
L 286.989752 128.940888 
L 290.269091 94.668141 
L 293.54843 82.809798 
L 296.827769 53.568 
L 300.107107 82.809928 
L 303.386446 98.318779 
L 306.665785 67.42358 
L 309.945124 108.360088 
L 313.224463 81.27916 
L 316.503802 115.315632 
L 319.78314 81.27916 
L 323.062479 53.568 
L 326.341818 98.171594 
L 329.621157 112.231862 
L 332.900496 84.520703 
L 336.179835 106.718113 
L 339.459174 91.521443 
L 342.738512 108.990597 
L 346.017851 98.318498 
L 349.29719 99.702215 
L 352.576529 101.459809 
L 355.855868 67.423687 
L 359.135207 98.227024 
L 362.414545 81.27916 
L 365.693884 112.131431 
L 368.973223 111.720952 
L 372.252562 111.120362 
L 375.531901 95.134923 
L 378.81124 67.42358 
L 382.090579 112.082679 
L 385.369917 68.955248 
L 388.649256 105.516998 
L 391.928595 67.423656 
L 395.207934 67.423687 
L 398.487273 132.13842 
" clip-path="url(#pd6860efe02)" style="fill: none; stroke: #d62728; stroke-width: 1.5; stroke-linecap: square"/>
   </g>
   <g id="line2d_20">
    <path d="M 73.832727 295.488 
L 77.112066 295.486379 
L 80.391405 271.296049 
L 83.670744 295.484761 
L 86.950083 295.483586 
L 90.229421 198.719718 
L 93.50876 222.911372 
L 96.788099 247.102291 
L 100.067438 198.718531 
L 103.346777 222.910477 
L 106.626116 247.101153 
L 109.905455 271.291434 
L 113.184793 222.910065 
L 116.464132 247.10162 
L 119.743471 222.907881 
L 123.02281 222.909932 
L 126.302149 247.100826 
L 129.581488 174.526247 
L 132.860826 222.90869 
L 136.140165 247.09959 
L 139.419504 150.335353 
L 142.698843 150.336382 
L 145.978182 174.526076 
L 149.257521 150.335916 
L 152.53686 271.29021 
L 155.816198 198.718181 
L 159.095537 174.525761 
L 162.374876 126.14401 
L 165.654215 247.099311 
L 168.933554 126.143933 
L 172.212893 198.717862 
L 175.492231 150.334859 
L 178.77157 174.526164 
L 182.050909 150.335014 
L 185.330248 174.5253 
L 188.609587 247.097484 
L 191.888926 150.335086 
L 195.168264 222.907876 
L 198.447603 150.335046 
L 201.726942 174.52507 
L 205.006281 150.33462 
L 208.28562 174.525167 
L 211.564959 126.14295 
L 214.844298 150.334627 
L 218.123636 126.143844 
L 221.402975 101.951995 
L 224.682314 150.333194 
L 227.961653 198.716715 
L 231.240992 150.334492 
L 234.520331 101.95378 
L 237.799669 101.952694 
L 241.079008 101.95192 
L 244.358347 150.333537 
L 247.637686 53.56968 
L 250.917025 150.333786 
L 254.196364 101.952861 
L 257.475702 150.334194 
L 260.755041 126.142294 
L 264.03438 150.334158 
L 267.313719 126.143296 
L 270.593058 247.097883 
L 273.872397 174.525285 
L 277.151736 101.952565 
L 280.431074 150.333849 
L 283.710413 150.33301 
L 286.989752 77.75982 
L 290.269091 126.142551 
L 293.54843 101.952062 
L 296.827769 126.142504 
L 300.107107 150.334364 
L 303.386446 77.760606 
L 306.665785 77.760085 
L 309.945124 101.951095 
L 313.224463 77.760848 
L 316.503802 198.715259 
L 319.78314 126.141902 
L 323.062479 150.334512 
L 326.341818 126.143226 
L 329.621157 101.951249 
L 332.900496 77.760691 
L 336.179835 126.14286 
L 339.459174 126.143283 
L 342.738512 101.951019 
L 346.017851 101.951608 
L 349.29719 77.760388 
L 352.576529 77.760423 
L 355.855868 77.760127 
L 359.135207 53.569134 
L 362.414545 77.760019 
L 365.693884 126.142818 
L 368.973223 126.142775 
L 372.252562 174.523958 
L 375.531901 150.333505 
L 378.81124 150.333821 
L 382.090579 77.760639 
L 385.369917 126.142289 
L 388.649256 101.951152 
L 391.928595 126.142779 
L 395.207934 101.951103 
L 398.487273 101.952008 
" clip-path="url(#pd6860efe02)" style="fill: none; stroke: #9467bd; stroke-width: 1.5; stroke-linecap: square"/>
   </g>
   <g id="line2d_21">
    <path d="M 73.832727 295.488 
L 77.112066 257.400869 
L 80.391405 251.449089 
L 83.670744 237.667409 
L 86.950083 227.900778 
L 90.229421 212.221603 
L 93.50876 223.829621 
L 96.788099 213.013848 
L 100.067438 210.571042 
L 103.346777 203.311786 
L 106.626116 181.082437 
L 109.905455 197.575705 
L 113.184793 192.247445 
L 116.464132 192.919315 
L 119.743471 165.599144 
L 123.02281 175.973758 
L 126.302149 167.458492 
L 129.581488 173.123765 
L 132.860826 169.901568 
L 136.140165 159.682143 
L 139.419504 179.626738 
L 142.698843 150.068335 
L 145.978182 165.325898 
L 149.257521 177.619474 
L 152.53686 145.939294 
L 155.816198 145.605499 
L 159.095537 136.600746 
L 162.374876 151.160226 
L 165.654215 146.927293 
L 168.933554 154.699573 
L 172.212893 144.965419 
L 175.492231 144.658728 
L 178.77157 152.855301 
L 182.050909 143.267726 
L 185.330248 140.548198 
L 188.609587 152.907532 
L 191.888926 140.897719 
L 195.168264 115.246019 
L 198.447603 135.966032 
L 201.726942 128.522892 
L 205.006281 147.520608 
L 208.28562 125.672434 
L 211.564959 130.311246 
L 214.844298 134.219801 
L 218.123636 130.635376 
L 221.402975 117.540786 
L 224.682314 127.993779 
L 227.961653 115.927438 
L 231.240992 129.185279 
L 234.520331 122.516338 
L 237.799669 106.584597 
L 241.079008 131.014058 
L 244.358347 122.37031 
L 247.637686 133.878198 
L 250.917025 98.887208 
L 254.196364 118.991813 
L 257.475702 100.720529 
L 260.755041 100.181086 
L 264.03438 110.655803 
L 267.313719 115.372841 
L 270.593058 128.304616 
L 273.872397 104.834798 
L 277.151736 108.755441 
L 280.431074 109.390076 
L 283.710413 110.188479 
L 286.989752 114.23854 
L 290.269091 93.867183 
L 293.54843 114.513519 
L 296.827769 102.265943 
L 300.107107 101.369358 
L 303.386446 104.703151 
L 306.665785 104.206616 
L 309.945124 102.581907 
L 313.224463 126.759438 
L 316.503802 113.805212 
L 319.78314 114.761963 
L 323.062479 115.793084 
L 326.341818 99.879753 
L 329.621157 110.610202 
L 332.900496 94.594768 
L 336.179835 108.484061 
L 339.459174 112.871876 
L 342.738512 108.860823 
L 346.017851 109.95522 
L 349.29719 114.308104 
L 352.576529 107.71121 
L 355.855868 114.394724 
L 359.135207 112.260725 
L 362.414545 111.174588 
L 365.693884 101.59975 
L 368.973223 99.202028 
L 372.252562 98.638518 
L 375.531901 107.748753 
L 378.81124 107.769718 
L 382.090579 95.675277 
L 385.369917 93.559502 
L 388.649256 99.965476 
L 391.928595 97.435826 
L 395.207934 96.979325 
L 398.487273 93.119997 
" clip-path="url(#pd6860efe02)" style="fill: none; stroke: #8c564b; stroke-width: 1.5; stroke-linecap: square"/>
   </g>
   <g id="line2d_22">
    <path d="M 73.832727 295.488 
L 77.112066 278.286877 
L 80.391405 270.260426 
L 83.670744 260.943634 
L 86.950083 258.622713 
L 90.229421 256.44069 
L 93.50876 249.536576 
L 96.788099 249.642363 
L 100.067438 244.659571 
L 103.346777 240.869938 
L 106.626116 227.692051 
L 109.905455 219.601147 
L 113.184793 239.001027 
L 116.464132 215.634449 
L 119.743471 229.976922 
L 123.02281 198.999832 
L 126.302149 226.474882 
L 129.581488 233.639359 
L 132.860826 210.667249 
L 136.140165 197.504321 
L 139.419504 166.725364 
L 142.698843 188.925496 
L 145.978182 183.592089 
L 149.257521 194.458079 
L 152.53686 171.96014 
L 155.816198 177.38296 
L 159.095537 176.371957 
L 162.374876 139.902935 
L 165.654215 174.252283 
L 168.933554 125.474955 
L 172.212893 186.22417 
L 175.492231 158.186998 
L 178.77157 126.602545 
L 182.050909 158.498209 
L 185.330248 161.613991 
L 188.609587 125.318038 
L 191.888926 154.141477 
L 195.168264 132.602641 
L 198.447603 131.425921 
L 201.726942 183.980757 
L 205.006281 121.193105 
L 208.28562 136.848687 
L 211.564959 139.429536 
L 214.844298 180.338265 
L 218.123636 142.545719 
L 221.402975 130.057513 
L 224.682314 139.123372 
L 227.961653 150.590428 
L 231.240992 171.743169 
L 234.520331 114.798644 
L 237.799669 106.623361 
L 241.079008 104.315195 
L 244.358347 136.50055 
L 247.637686 105.299089 
L 250.917025 140.631634 
L 254.196364 128.907283 
L 257.475702 131.317749 
L 260.755041 111.189127 
L 264.03438 123.894898 
L 267.313719 154.16051 
L 270.593058 142.672667 
L 273.872397 108.582739 
L 277.151736 115.45449 
L 280.431074 102.101935 
L 283.710413 77.826945 
L 286.989752 139.849363 
L 290.269091 85.117337 
L 293.54843 136.975245 
L 296.827769 150.393892 
L 300.107107 96.885418 
L 303.386446 85.295115 
L 306.665785 105.858419 
L 309.945124 110.664136 
L 313.224463 110.226006 
L 316.503802 108.167072 
L 319.78314 87.605339 
L 323.062479 105.961867 
L 326.341818 112.903633 
L 329.621157 130.325678 
L 332.900496 107.301694 
L 336.179835 98.876993 
L 339.459174 102.851034 
L 342.738512 106.379703 
L 346.017851 108.279588 
L 349.29719 113.99539 
L 352.576529 99.478549 
L 355.855868 112.6103 
L 359.135207 95.192976 
L 362.414545 135.660632 
L 365.693884 98.781352 
L 368.973223 121.059173 
L 372.252562 97.083234 
L 375.531901 78.894495 
L 378.81124 74.876581 
L 382.090579 89.506038 
L 385.369917 108.146357 
L 388.649256 72.377653 
L 391.928595 96.661517 
L 395.207934 96.166684 
L 398.487273 96.396623 
" clip-path="url(#pd6860efe02)" style="fill: none; stroke: #e377c2; stroke-width: 1.5; stroke-linecap: square"/>
   </g>
   <g id="patch_3">
    <path d="M 57.6 307.584 
L 57.6 41.472 
" style="fill: none; stroke: #000000; stroke-width: 0.8; stroke-linejoin: miter; stroke-linecap: square"/>
   </g>
   <g id="patch_4">
    <path d="M 414.72 307.584 
L 414.72 41.472 
" style="fill: none; stroke: #000000; stroke-width: 0.8; stroke-linejoin: miter; stroke-linecap: square"/>
   </g>
   <g id="patch_5">
    <path d="M 57.6 307.584 
L 414.72 307.584 
" style="fill: none; stroke: #000000; stroke-width: 0.8; stroke-linejoin: miter; stroke-linecap: square"/>
   </g>
   <g id="patch_6">
    <path d="M 57.6 41.472 
L 414.72 41.472 
" style="fill: none; stroke: #000000; stroke-width: 0.8; stroke-linejoin: miter; stroke-linecap: square"/>
   </g>
   <g id="text_18">
    <!-- Sparsification Behavior -->
    <g transform="translate(166.8075 35.472) scale(0.12 -0.12)">
     <defs>
      <path id="DejaVuSans-53" d="M 3425 4513 
L 3425 3897 
Q 3066 4069 2747 4153 
Q 2428 4238 2131 4238 
Q 1616 4238 1336 4038 
Q 1056 3838 1056 3469 
Q 1056 3159 1242 3001 
Q 1428 2844 1947 2747 
L 2328 2669 
Q 3034 2534 3370 2195 
Q 3706 1856 3706 1288 
Q 3706 609 3251 259 
Q 2797 -91 1919 -91 
Q 1588 -91 1214 -16 
Q 841 59 441 206 
L 441 856 
Q 825 641 1194 531 
Q 1563 422 1919 422 
Q 2459 422 2753 634 
Q 3047 847 3047 1241 
Q 3047 1584 2836 1778 
Q 2625 1972 2144 2069 
L 1759 2144 
Q 1053 2284 737 2584 
Q 422 2884 422 3419 
Q 422 4038 858 4394 
Q 1294 4750 2059 4750 
Q 2388 4750 2728 4690 
Q 3069 4631 3425 4513 
z
" transform="scale(0.015625)"/>
      <path id="DejaVuSans-70" d="M 1159 525 
L 1159 -1331 
L 581 -1331 
L 581 3500 
L 1159 3500 
L 1159 2969 
Q 1341 3281 1617 3432 
Q 1894 3584 2278 3584 
Q 2916 3584 3314 3078 
Q 3713 2572 3713 1747 
Q 3713 922 3314 415 
Q 2916 -91 2278 -91 
Q 1894 -91 1617 61 
Q 1341 213 1159 525 
z
M 3116 1747 
Q 3116 2381 2855 2742 
Q 2594 3103 2138 3103 
Q 1681 3103 1420 2742 
Q 1159 2381 1159 1747 
Q 1159 1113 1420 752 
Q 1681 391 2138 391 
Q 2594 391 2855 752 
Q 3116 1113 3116 1747 
z
" transform="scale(0.015625)"/>
      <path id="DejaVuSans-61" d="M 2194 1759 
Q 1497 1759 1228 1600 
Q 959 1441 959 1056 
Q 959 750 1161 570 
Q 1363 391 1709 391 
Q 2188 391 2477 730 
Q 2766 1069 2766 1631 
L 2766 1759 
L 2194 1759 
z
M 3341 1997 
L 3341 0 
L 2766 0 
L 2766 531 
Q 2569 213 2275 61 
Q 1981 -91 1556 -91 
Q 1019 -91 701 211 
Q 384 513 384 1019 
Q 384 1609 779 1909 
Q 1175 2209 1959 2209 
L 2766 2209 
L 2766 2266 
Q 2766 2663 2505 2880 
Q 2244 3097 1772 3097 
Q 1472 3097 1187 3025 
Q 903 2953 641 2809 
L 641 3341 
Q 956 3463 1253 3523 
Q 1550 3584 1831 3584 
Q 2591 3584 2966 3190 
Q 3341 2797 3341 1997 
z
" transform="scale(0.015625)"/>
      <path id="DejaVuSans-72" d="M 2631 2963 
Q 2534 3019 2420 3045 
Q 2306 3072 2169 3072 
Q 1681 3072 1420 2755 
Q 1159 2438 1159 1844 
L 1159 0 
L 581 0 
L 581 3500 
L 1159 3500 
L 1159 2956 
Q 1341 3275 1631 3429 
Q 1922 3584 2338 3584 
Q 2397 3584 2469 3576 
Q 2541 3569 2628 3553 
L 2631 2963 
z
" transform="scale(0.015625)"/>
      <path id="DejaVuSans-69" d="M 603 3500 
L 1178 3500 
L 1178 0 
L 603 0 
L 603 3500 
z
M 603 4863 
L 1178 4863 
L 1178 4134 
L 603 4134 
L 603 4863 
z
" transform="scale(0.015625)"/>
      <path id="DejaVuSans-66" d="M 2375 4863 
L 2375 4384 
L 1825 4384 
Q 1516 4384 1395 4259 
Q 1275 4134 1275 3809 
L 1275 3500 
L 2222 3500 
L 2222 3053 
L 1275 3053 
L 1275 0 
L 697 0 
L 697 3053 
L 147 3053 
L 147 3500 
L 697 3500 
L 697 3744 
Q 697 4328 969 4595 
Q 1241 4863 1831 4863 
L 2375 4863 
z
" transform="scale(0.015625)"/>
      <path id="DejaVuSans-63" d="M 3122 3366 
L 3122 2828 
Q 2878 2963 2633 3030 
Q 2388 3097 2138 3097 
Q 1578 3097 1268 2742 
Q 959 2388 959 1747 
Q 959 1106 1268 751 
Q 1578 397 2138 397 
Q 2388 397 2633 464 
Q 2878 531 3122 666 
L 3122 134 
Q 2881 22 2623 -34 
Q 2366 -91 2075 -91 
Q 1284 -91 818 406 
Q 353 903 353 1747 
Q 353 2603 823 3093 
Q 1294 3584 2113 3584 
Q 2378 3584 2631 3529 
Q 2884 3475 3122 3366 
z
" transform="scale(0.015625)"/>
      <path id="DejaVuSans-74" d="M 1172 4494 
L 1172 3500 
L 2356 3500 
L 2356 3053 
L 1172 3053 
L 1172 1153 
Q 1172 725 1289 603 
Q 1406 481 1766 481 
L 2356 481 
L 2356 0 
L 1766 0 
Q 1100 0 847 248 
Q 594 497 594 1153 
L 594 3053 
L 172 3053 
L 172 3500 
L 594 3500 
L 594 4494 
L 1172 4494 
z
" transform="scale(0.015625)"/>
      <path id="DejaVuSans-6f" d="M 1959 3097 
Q 1497 3097 1228 2736 
Q 959 2375 959 1747 
Q 959 1119 1226 758 
Q 1494 397 1959 397 
Q 2419 397 2687 759 
Q 2956 1122 2956 1747 
Q 2956 2369 2687 2733 
Q 2419 3097 1959 3097 
z
M 1959 3584 
Q 2709 3584 3137 3096 
Q 3566 2609 3566 1747 
Q 3566 888 3137 398 
Q 2709 -91 1959 -91 
Q 1206 -91 779 398 
Q 353 888 353 1747 
Q 353 2609 779 3096 
Q 1206 3584 1959 3584 
z
" transform="scale(0.015625)"/>
      <path id="DejaVuSans-6e" d="M 3513 2113 
L 3513 0 
L 2938 0 
L 2938 2094 
Q 2938 2591 2744 2837 
Q 2550 3084 2163 3084 
Q 1697 3084 1428 2787 
Q 1159 2491 1159 1978 
L 1159 0 
L 581 0 
L 581 3500 
L 1159 3500 
L 1159 2956 
Q 1366 3272 1645 3428 
Q 1925 3584 2291 3584 
Q 2894 3584 3203 3211 
Q 3513 2838 3513 2113 
z
" transform="scale(0.015625)"/>
      <path id="DejaVuSans-20" transform="scale(0.015625)"/>
      <path id="DejaVuSans-42" d="M 1259 2228 
L 1259 519 
L 2272 519 
Q 2781 519 3026 730 
Q 3272 941 3272 1375 
Q 3272 1813 3026 2020 
Q 2781 2228 2272 2228 
L 1259 2228 
z
M 1259 4147 
L 1259 2741 
L 2194 2741 
Q 2656 2741 2882 2914 
Q 3109 3088 3109 3444 
Q 3109 3797 2882 3972 
Q 2656 4147 2194 4147 
L 1259 4147 
z
M 628 4666 
L 2241 4666 
Q 2963 4666 3353 4366 
Q 3744 4066 3744 3513 
Q 3744 3084 3544 2831 
Q 3344 2578 2956 2516 
Q 3422 2416 3680 2098 
Q 3938 1781 3938 1306 
Q 3938 681 3513 340 
Q 3088 0 2303 0 
L 628 0 
L 628 4666 
z
" transform="scale(0.015625)"/>
      <path id="DejaVuSans-65" d="M 3597 1894 
L 3597 1613 
L 953 1613 
Q 991 1019 1311 708 
Q 1631 397 2203 397 
Q 2534 397 2845 478 
Q 3156 559 3463 722 
L 3463 178 
Q 3153 47 2828 -22 
Q 2503 -91 2169 -91 
Q 1331 -91 842 396 
Q 353 884 353 1716 
Q 353 2575 817 3079 
Q 1281 3584 2069 3584 
Q 2775 3584 3186 3129 
Q 3597 2675 3597 1894 
z
M 3022 2063 
Q 3016 2534 2758 2815 
Q 2500 3097 2075 3097 
Q 1594 3097 1305 2825 
Q 1016 2553 972 2059 
L 3022 2063 
z
" transform="scale(0.015625)"/>
      <path id="DejaVuSans-68" d="M 3513 2113 
L 3513 0 
L 2938 0 
L 2938 2094 
Q 2938 2591 2744 2837 
Q 2550 3084 2163 3084 
Q 1697 3084 1428 2787 
Q 1159 2491 1159 1978 
L 1159 0 
L 581 0 
L 581 4863 
L 1159 4863 
L 1159 2956 
Q 1366 3272 1645 3428 
Q 1925 3584 2291 3584 
Q 2894 3584 3203 3211 
Q 3513 2838 3513 2113 
z
" transform="scale(0.015625)"/>
      <path id="DejaVuSans-76" d="M 191 3500 
L 800 3500 
L 1894 563 
L 2988 3500 
L 3597 3500 
L 2284 0 
L 1503 0 
L 191 3500 
z
" transform="scale(0.015625)"/>
     </defs>
     <use xlink:href="#DejaVuSans-53"/>
     <use xlink:href="#DejaVuSans-70" transform="translate(63.476562 0)"/>
     <use xlink:href="#DejaVuSans-61" transform="translate(126.953125 0)"/>
     <use xlink:href="#DejaVuSans-72" transform="translate(188.232422 0)"/>
     <use xlink:href="#DejaVuSans-73" transform="translate(229.345703 0)"/>
     <use xlink:href="#DejaVuSans-69" transform="translate(281.445312 0)"/>
     <use xlink:href="#DejaVuSans-66" transform="translate(309.228516 0)"/>
     <use xlink:href="#DejaVuSans-69" transform="translate(344.433594 0)"/>
     <use xlink:href="#DejaVuSans-63" transform="translate(372.216797 0)"/>
     <use xlink:href="#DejaVuSans-61" transform="translate(427.197266 0)"/>
     <use xlink:href="#DejaVuSans-74" transform="translate(488.476562 0)"/>
     <use xlink:href="#DejaVuSans-69" transform="translate(527.685547 0)"/>
     <use xlink:href="#DejaVuSans-6f" transform="translate(555.46875 0)"/>
     <use xlink:href="#DejaVuSans-6e" transform="translate(616.650391 0)"/>
     <use xlink:href="#DejaVuSans-20" transform="translate(680.029297 0)"/>
     <use xlink:href="#DejaVuSans-42" transform="translate(711.816406 0)"/>
     <use xlink:href="#DejaVuSans-65" transform="translate(780.419922 0)"/>
     <use xlink:href="#DejaVuSans-68" transform="translate(841.943359 0)"/>
     <use xlink:href="#DejaVuSans-61" transform="translate(905.322266 0)"/>
     <use xlink:href="#DejaVuSans-76" transform="translate(966.601562 0)"/>
     <use xlink:href="#DejaVuSans-69" transform="translate(1025.78125 0)"/>
     <use xlink:href="#DejaVuSans-6f" transform="translate(1053.564453 0)"/>
     <use xlink:href="#DejaVuSans-72" transform="translate(1114.746094 0)"/>
    </g>
   </g>
   <g id="legend_1">
    <g id="patch_7">
     <path d="M 304.616875 302.584 
L 407.72 302.584 
Q 409.72 302.584 409.72 300.584 
L 409.72 197.724625 
Q 409.72 195.724625 407.72 195.724625 
L 304.616875 195.724625 
Q 302.616875 195.724625 302.616875 197.724625 
L 302.616875 300.584 
Q 302.616875 302.584 304.616875 302.584 
z
" style="fill: #ffffff; opacity: 0.8; stroke: #cccccc; stroke-linejoin: miter"/>
    </g>
    <g id="line2d_23">
     <path d="M 306.616875 203.823062 
L 316.616875 203.823062 
L 326.616875 203.823062 
" style="fill: none; stroke: #1f77b4; stroke-width: 1.5; stroke-linecap: square"/>
    </g>
    <g id="text_19">
     <!-- 494_bus.mtx -->
     <g transform="translate(334.616875 207.323062) scale(0.1 -0.1)">
      <defs>
       <path id="DejaVuSans-39" d="M 703 97 
L 703 672 
Q 941 559 1184 500 
Q 1428 441 1663 441 
Q 2288 441 2617 861 
Q 2947 1281 2994 2138 
Q 2813 1869 2534 1725 
Q 2256 1581 1919 1581 
Q 1219 1581 811 2004 
Q 403 2428 403 3163 
Q 403 3881 828 4315 
Q 1253 4750 1959 4750 
Q 2769 4750 3195 4129 
Q 3622 3509 3622 2328 
Q 3622 1225 3098 567 
Q 2575 -91 1691 -91 
Q 1453 -91 1209 -44 
Q 966 3 703 97 
z
M 1959 2075 
Q 2384 2075 2632 2365 
Q 2881 2656 2881 3163 
Q 2881 3666 2632 3958 
Q 2384 4250 1959 4250 
Q 1534 4250 1286 3958 
Q 1038 3666 1038 3163 
Q 1038 2656 1286 2365 
Q 1534 2075 1959 2075 
z
" transform="scale(0.015625)"/>
       <path id="DejaVuSans-5f" d="M 3263 -1063 
L 3263 -1509 
L -63 -1509 
L -63 -1063 
L 3263 -1063 
z
" transform="scale(0.015625)"/>
       <path id="DejaVuSans-62" d="M 3116 1747 
Q 3116 2381 2855 2742 
Q 2594 3103 2138 3103 
Q 1681 3103 1420 2742 
Q 1159 2381 1159 1747 
Q 1159 1113 1420 752 
Q 1681 391 2138 391 
Q 2594 391 2855 752 
Q 3116 1113 3116 1747 
z
M 1159 2969 
Q 1341 3281 1617 3432 
Q 1894 3584 2278 3584 
Q 2916 3584 3314 3078 
Q 3713 2572 3713 1747 
Q 3713 922 3314 415 
Q 2916 -91 2278 -91 
Q 1894 -91 1617 61 
Q 1341 213 1159 525 
L 1159 0 
L 581 0 
L 581 4863 
L 1159 4863 
L 1159 2969 
z
" transform="scale(0.015625)"/>
       <path id="DejaVuSans-75" d="M 544 1381 
L 544 3500 
L 1119 3500 
L 1119 1403 
Q 1119 906 1312 657 
Q 1506 409 1894 409 
Q 2359 409 2629 706 
Q 2900 1003 2900 1516 
L 2900 3500 
L 3475 3500 
L 3475 0 
L 2900 0 
L 2900 538 
Q 2691 219 2414 64 
Q 2138 -91 1772 -91 
Q 1169 -91 856 284 
Q 544 659 544 1381 
z
M 1991 3584 
L 1991 3584 
z
" transform="scale(0.015625)"/>
       <path id="DejaVuSans-6d" d="M 3328 2828 
Q 3544 3216 3844 3400 
Q 4144 3584 4550 3584 
Q 5097 3584 5394 3201 
Q 5691 2819 5691 2113 
L 5691 0 
L 5113 0 
L 5113 2094 
Q 5113 2597 4934 2840 
Q 4756 3084 4391 3084 
Q 3944 3084 3684 2787 
Q 3425 2491 3425 1978 
L 3425 0 
L 2847 0 
L 2847 2094 
Q 2847 2600 2669 2842 
Q 2491 3084 2119 3084 
Q 1678 3084 1418 2786 
Q 1159 2488 1159 1978 
L 1159 0 
L 581 0 
L 581 3500 
L 1159 3500 
L 1159 2956 
Q 1356 3278 1631 3431 
Q 1906 3584 2284 3584 
Q 2666 3584 2933 3390 
Q 3200 3197 3328 2828 
z
" transform="scale(0.015625)"/>
       <path id="DejaVuSans-78" d="M 3513 3500 
L 2247 1797 
L 3578 0 
L 2900 0 
L 1881 1375 
L 863 0 
L 184 0 
L 1544 1831 
L 300 3500 
L 978 3500 
L 1906 2253 
L 2834 3500 
L 3513 3500 
z
" transform="scale(0.015625)"/>
      </defs>
      <use xlink:href="#DejaVuSans-34"/>
      <use xlink:href="#DejaVuSans-39" transform="translate(63.623047 0)"/>
      <use xlink:href="#DejaVuSans-34" transform="translate(127.246094 0)"/>
      <use xlink:href="#DejaVuSans-5f" transform="translate(190.869141 0)"/>
      <use xlink:href="#DejaVuSans-62" transform="translate(240.869141 0)"/>
      <use xlink:href="#DejaVuSans-75" transform="translate(304.345703 0)"/>
      <use xlink:href="#DejaVuSans-73" transform="translate(367.724609 0)"/>
      <use xlink:href="#DejaVuSans-2e" transform="translate(419.824219 0)"/>
      <use xlink:href="#DejaVuSans-6d" transform="translate(451.611328 0)"/>
      <use xlink:href="#DejaVuSans-74" transform="translate(549.023438 0)"/>
      <use xlink:href="#DejaVuSans-78" transform="translate(588.232422 0)"/>
     </g>
    </g>
    <g id="line2d_24">
     <path d="M 306.616875 218.779313 
L 316.616875 218.779313 
L 326.616875 218.779313 
" style="fill: none; stroke: #ff7f0e; stroke-width: 1.5; stroke-linecap: square"/>
    </g>
    <g id="text_20">
     <!-- 662_bus.mtx -->
     <g transform="translate(334.616875 222.279313) scale(0.1 -0.1)">
      <use xlink:href="#DejaVuSans-36"/>
      <use xlink:href="#DejaVuSans-36" transform="translate(63.623047 0)"/>
      <use xlink:href="#DejaVuSans-32" transform="translate(127.246094 0)"/>
      <use xlink:href="#DejaVuSans-5f" transform="translate(190.869141 0)"/>
      <use xlink:href="#DejaVuSans-62" transform="translate(240.869141 0)"/>
      <use xlink:href="#DejaVuSans-75" transform="translate(304.345703 0)"/>
      <use xlink:href="#DejaVuSans-73" transform="translate(367.724609 0)"/>
      <use xlink:href="#DejaVuSans-2e" transform="translate(419.824219 0)"/>
      <use xlink:href="#DejaVuSans-6d" transform="translate(451.611328 0)"/>
      <use xlink:href="#DejaVuSans-74" transform="translate(549.023438 0)"/>
      <use xlink:href="#DejaVuSans-78" transform="translate(588.232422 0)"/>
     </g>
    </g>
    <g id="line2d_25">
     <path d="M 306.616875 233.735562 
L 316.616875 233.735562 
L 326.616875 233.735562 
" style="fill: none; stroke: #2ca02c; stroke-width: 1.5; stroke-linecap: square"/>
    </g>
    <g id="text_21">
     <!-- 685_bus.mtx -->
     <g transform="translate(334.616875 237.235562) scale(0.1 -0.1)">
      <use xlink:href="#DejaVuSans-36"/>
      <use xlink:href="#DejaVuSans-38" transform="translate(63.623047 0)"/>
      <use xlink:href="#DejaVuSans-35" transform="translate(127.246094 0)"/>
      <use xlink:href="#DejaVuSans-5f" transform="translate(190.869141 0)"/>
      <use xlink:href="#DejaVuSans-62" transform="translate(240.869141 0)"/>
      <use xlink:href="#DejaVuSans-75" transform="translate(304.345703 0)"/>
      <use xlink:href="#DejaVuSans-73" transform="translate(367.724609 0)"/>
      <use xlink:href="#DejaVuSans-2e" transform="translate(419.824219 0)"/>
      <use xlink:href="#DejaVuSans-6d" transform="translate(451.611328 0)"/>
      <use xlink:href="#DejaVuSans-74" transform="translate(549.023438 0)"/>
      <use xlink:href="#DejaVuSans-78" transform="translate(588.232422 0)"/>
     </g>
    </g>
    <g id="line2d_26">
     <path d="M 306.616875 248.691812 
L 316.616875 248.691812 
L 326.616875 248.691812 
" style="fill: none; stroke: #d62728; stroke-width: 1.5; stroke-linecap: square"/>
    </g>
    <g id="text_22">
     <!-- 1138_bus.mtx -->
     <g transform="translate(334.616875 252.191812) scale(0.1 -0.1)">
      <use xlink:href="#DejaVuSans-31"/>
      <use xlink:href="#DejaVuSans-31" transform="translate(63.623047 0)"/>
      <use xlink:href="#DejaVuSans-33" transform="translate(127.246094 0)"/>
      <use xlink:href="#DejaVuSans-38" transform="translate(190.869141 0)"/>
      <use xlink:href="#DejaVuSans-5f" transform="translate(254.492188 0)"/>
      <use xlink:href="#DejaVuSans-62" transform="translate(304.492188 0)"/>
      <use xlink:href="#DejaVuSans-75" transform="translate(367.96875 0)"/>
      <use xlink:href="#DejaVuSans-73" transform="translate(431.347656 0)"/>
      <use xlink:href="#DejaVuSans-2e" transform="translate(483.447266 0)"/>
      <use xlink:href="#DejaVuSans-6d" transform="translate(515.234375 0)"/>
      <use xlink:href="#DejaVuSans-74" transform="translate(612.646484 0)"/>
      <use xlink:href="#DejaVuSans-78" transform="translate(651.855469 0)"/>
     </g>
    </g>
    <g id="line2d_27">
     <path d="M 306.616875 263.648062 
L 316.616875 263.648062 
L 326.616875 263.648062 
" style="fill: none; stroke: #9467bd; stroke-width: 1.5; stroke-linecap: square"/>
    </g>
    <g id="text_23">
     <!-- arc130.mtx -->
     <g transform="translate(334.616875 267.148062) scale(0.1 -0.1)">
      <use xlink:href="#DejaVuSans-61"/>
      <use xlink:href="#DejaVuSans-72" transform="translate(61.279297 0)"/>
      <use xlink:href="#DejaVuSans-63" transform="translate(100.142578 0)"/>
      <use xlink:href="#DejaVuSans-31" transform="translate(155.123047 0)"/>
      <use xlink:href="#DejaVuSans-33" transform="translate(218.746094 0)"/>
      <use xlink:href="#DejaVuSans-30" transform="translate(282.369141 0)"/>
      <use xlink:href="#DejaVuSans-2e" transform="translate(345.992188 0)"/>
      <use xlink:href="#DejaVuSans-6d" transform="translate(377.779297 0)"/>
      <use xlink:href="#DejaVuSans-74" transform="translate(475.191406 0)"/>
      <use xlink:href="#DejaVuSans-78" transform="translate(514.400391 0)"/>
     </g>
    </g>
    <g id="line2d_28">
     <path d="M 306.616875 278.326188 
L 316.616875 278.326188 
L 326.616875 278.326188 
" style="fill: none; stroke: #8c564b; stroke-width: 1.5; stroke-linecap: square"/>
    </g>
    <g id="text_24">
     <!-- ash85.mtx -->
     <g transform="translate(334.616875 281.826188) scale(0.1 -0.1)">
      <use xlink:href="#DejaVuSans-61"/>
      <use xlink:href="#DejaVuSans-73" transform="translate(61.279297 0)"/>
      <use xlink:href="#DejaVuSans-68" transform="translate(113.378906 0)"/>
      <use xlink:href="#DejaVuSans-38" transform="translate(176.757812 0)"/>
      <use xlink:href="#DejaVuSans-35" transform="translate(240.380859 0)"/>
      <use xlink:href="#DejaVuSans-2e" transform="translate(304.003906 0)"/>
      <use xlink:href="#DejaVuSans-6d" transform="translate(335.791016 0)"/>
      <use xlink:href="#DejaVuSans-74" transform="translate(433.203125 0)"/>
      <use xlink:href="#DejaVuSans-78" transform="translate(472.412109 0)"/>
     </g>
    </g>
    <g id="line2d_29">
     <path d="M 306.616875 293.004312 
L 316.616875 293.004312 
L 326.616875 293.004312 
" style="fill: none; stroke: #e377c2; stroke-width: 1.5; stroke-linecap: square"/>
    </g>
    <g id="text_25">
     <!-- ash292.mtx -->
     <g transform="translate(334.616875 296.504312) scale(0.1 -0.1)">
      <use xlink:href="#DejaVuSans-61"/>
      <use xlink:href="#DejaVuSans-73" transform="translate(61.279297 0)"/>
      <use xlink:href="#DejaVuSans-68" transform="translate(113.378906 0)"/>
      <use xlink:href="#DejaVuSans-32" transform="translate(176.757812 0)"/>
      <use xlink:href="#DejaVuSans-39" transform="translate(240.380859 0)"/>
      <use xlink:href="#DejaVuSans-32" transform="translate(304.003906 0)"/>
      <use xlink:href="#DejaVuSans-2e" transform="translate(367.626953 0)"/>
      <use xlink:href="#DejaVuSans-6d" transform="translate(399.414062 0)"/>
      <use xlink:href="#DejaVuSans-74" transform="translate(496.826172 0)"/>
      <use xlink:href="#DejaVuSans-78" transform="translate(536.035156 0)"/>
     </g>
    </g>
   </g>
  </g>
 </g>
 <defs>
  <clipPath id="pd6860efe02">
   <rect x="57.6" y="41.472" width="357.12" height="266.112"/>
  </clipPath>
 </defs>
</svg>
